<?xml version="1.0" encoding="utf-8"?>
<!-- Generator: Adobe Illustrator 27.5.0, SVG Export Plug-In . SVG Version: 6.00 Build 0)  -->
<svg version="1.1" id="Layer_1" xmlns="http://www.w3.org/2000/svg" xmlns:xlink="http://www.w3.org/1999/xlink" x="0px" y="0px"
	 viewBox="0 0 950.7 644.3" style="enable-background:new 0 0 950.7 644.3;" xml:space="preserve">
<style type="text/css">
	.st0{fill:#314151;}
	.st1{fill:#FFFFFF;}
	.st2{fill:#DFEEEF;}
	.st3{fill:#087E8A;}
	.st4{fill:#F5F9FD;}
	.st5{fill:#E5EDF8;}
	.st6{clip-path:url(#SVGID_00000067198424445572209090000003176109645367638943_);}
	.st7{fill:#D1DFF2;}
	.st8{clip-path:url(#SVGID_00000074414952508744232050000006928679058162088088_);}
	.st9{clip-path:url(#SVGID_00000057848588175080241350000001378905184828112059_);}
	.st10{clip-path:url(#SVGID_00000101103280534616181470000015013523587748822710_);}
	.st11{clip-path:url(#SVGID_00000000213196983047658460000001633354854954975895_);fill:#049DB8;}
	.st12{fill:#E6E6E6;}
	.st13{fill:#049DB8;}
	.st14{fill:#F7F7F7;}
	.st15{fill:#FFBD0B;}
	.st16{fill:#F69156;}
	.st17{clip-path:url(#SVGID_00000097494018769908621410000014750175679538040980_);fill:#45BBCE;}
	.st18{fill:#0A358C;}
	.st19{fill:none;}
	.st20{clip-path:url(#SVGID_00000145745333489651121170000002277203145484180106_);}
	.st21{clip-path:url(#SVGID_00000147910979583349630810000009549400484802184613_);}
	.st22{fill:none;stroke:#314151;stroke-width:2;stroke-linecap:round;stroke-miterlimit:10;}
	.st23{fill:#FFE247;}
	.st24{opacity:0.2;}
	.st25{clip-path:url(#SVGID_00000047773286885988286460000006534681484649755578_);}
	.st26{clip-path:url(#SVGID_00000063611278100296293050000003710442314555663004_);}
	.st27{clip-path:url(#SVGID_00000183951592305198093390000001324112644006973108_);}
	.st28{clip-path:url(#SVGID_00000119113299548892254160000010371774996072230331_);}
	.st29{clip-path:url(#SVGID_00000103979044028917593310000006643391640600643766_);}
	.st30{clip-path:url(#SVGID_00000029748447456583409480000004866158578285609377_);}
	.st31{clip-path:url(#SVGID_00000129164494765199518930000008071170094416498571_);}
	.st32{clip-path:url(#SVGID_00000046307630627866198390000016391025798347230344_);}
	.st33{clip-path:url(#SVGID_00000083063069672052532500000013607886306772969634_);}
	.st34{clip-path:url(#SVGID_00000144340003458093144730000008581593255118881703_);}
	.st35{fill:#F7AFA0;}
	.st36{fill:#EE6F6C;}
	.st37{fill:#CCDFF7;}
	.st38{fill:#0A8B91;}
	.st39{fill:#096468;}
	.st40{fill:#0E9B9B;}
	.st41{fill:#03236D;}
	.st42{fill:#27343F;}
	.st43{fill:#895E3B;}
	.st44{fill:#553D25;}
	.st45{fill:#DD6666;}
	.st46{fill:#D36262;}
	.st47{opacity:0.2;enable-background:new    ;}
	.st48{fill:#314050;}
	.st49{fill:#D16262;}
	.st50{fill:#E2408E;}
	.st51{clip-path:url(#SVGID_00000099647824449512314300000004047008779499077271_);}
	.st52{clip-path:url(#SVGID_00000124841155873841992850000007451156076529952902_);}
	.st53{fill:#BFDBDD;}
	.st54{fill:#E2EBF7;}
	.st55{clip-path:url(#SVGID_00000022522716556766451310000015210950593706290106_);}
	.st56{fill:#F48F2A;}
	.st57{opacity:0.5;enable-background:new    ;}
	.st58{fill:#BBE4EB;}
	.st59{opacity:0.4;enable-background:new    ;}
	.st60{fill:#45BBCE;}
	.st61{opacity:0.5;}
	.st62{opacity:0.7;}
</style>
<g>
	<g id="Layer_1_00000059306653056784937600000017175109283694054826_">
		<g>
			<path class="st0" d="M762.4,179.8c-13.2-53.5,29.3-54.7,29.3-54.7c-6.2-41,31.5-41,31.5-41c9.1-11.2,28.7-11.2,44.1,0
				c15.7,11.4,16,23.6,11.9,30.2c-11.4,18.2-45.3-4-48.1-10.1c0,0,2.5,6-4.1,9.5s-4.9,0-12.1,4.7c0,0,4,17.7-1.9,34
				c-4.1,11.4-11,18.4-26.2,21.7L762.4,179.8z"/>
		</g>
		<g>
			<path class="st1" d="M294.4,157.4h449.5c2.1,0,3.9,1.7,3.9,3.8c0,0,0,0,0,0.1v284.6c0,2.1-1.7,3.9-3.9,3.9l0,0H293.4
				c-2.1,0-3.9-1.7-3.9-3.9l0,0V162.2C289.6,159.5,291.8,157.4,294.4,157.4L294.4,157.4z"/>
		</g>
		<g>
			<rect x="446" y="175.6" class="st2" width="303.4" height="273.1"/>
		</g>
		<g>
			<rect x="471.9" y="191.1" class="st1" width="247.9" height="33.8"/>
		</g>
		<g>
			<path class="st3" d="M693.9,196.4h18.3c1.4,0,2.5,1.1,2.5,2.5v18.3c0,1.4-1.1,2.5-2.5,2.5h-18.3c-1.4,0-2.5-1.1-2.5-2.5v-18.3
				C691.4,197.5,692.6,196.4,693.9,196.4z"/>
		</g>
		<g id="paperclip-1_00000157291894858844120570000002693608174530942594_">
			<path class="st1" d="M708.5,208.3l-4.7,4.8c-1.3,1.3-3.4,1.5-4.7,0.3c-1.5-1.2-1.7-3.5-0.5-4.9c0.1-0.1,0.1-0.2,0.2-0.2l5.8-5.9
				c0.7-0.7,1.8-0.9,2.7-0.3c1,0.6,1.2,2,0.6,2.9c-0.1,0.1-0.2,0.2-0.3,0.3l-5.6,5.6c-0.3,0.3-0.7,0.3-1,0c-0.3-0.3-0.3-0.7,0-1
				l4.6-4.6c0.3-0.3,0.3-0.7,0-1l0,0c-0.3-0.3-0.7-0.3-1,0l-4.6,4.6c-0.7,0.7-0.9,1.9-0.3,2.7c0.7,1,2,1.2,2.9,0.6
				c0.1-0.1,0.2-0.2,0.3-0.3l5.5-5.5c1.3-1.3,1.5-3.4,0.3-4.7c-1.2-1.5-3.4-1.7-4.8-0.5c-0.1,0.1-0.2,0.2-0.3,0.2l-5.7,5.7
				c-1.9,1.9-2.1,4.9-0.2,6.9c1.9,2,4.9,2.1,6.8,0.2l0.1-0.1l4.9-4.9c0.3-0.3,0.3-0.7,0-1l0,0l0,0
				C709.3,207.9,708.8,208,708.5,208.3L708.5,208.3z"/>
		</g>
		<g>
			<rect x="471.9" y="228.2" class="st1" width="247.9" height="201.2"/>
		</g>
		<g>
			<path class="st2" d="M686,262.6H490.5c-0.5,0-1-0.4-1-1s0.4-1,1-1H686c0.5,0,1,0.4,1,1S686.5,262.6,686,262.6z"/>
		</g>
		<g>
			<path class="st2" d="M686,273H490.5c-0.5,0-1-0.4-1-1c0-0.5,0.4-1,1-1H686c0.5,0,1,0.4,1,1C687,272.6,686.5,273,686,273z"/>
		</g>
		<g>
			<path class="st2" d="M686,283.4H490.5c-0.5,0-1-0.4-1-1c0-0.5,0.4-1,1-1H686c0.5,0,1,0.4,1,1C687,282.9,686.5,283.4,686,283.4z"
				/>
		</g>
		<g>
			<path class="st2" d="M686,293.7H490.5c-0.5,0-1-0.4-1-1c0-0.5,0.4-1,1-1H686c0.5,0,1,0.4,1,1C687,293.3,686.5,293.7,686,293.7z"
				/>
		</g>
		<g>
			<path class="st2" d="M686,304H490.5c-0.5,0-1-0.4-1-1c0-0.5,0.4-1,1-1H686c0.5,0,1,0.4,1,1C687,303.6,686.5,304,686,304z"/>
		</g>
		<g>
			<path class="st2" d="M686,314.4H490.5c-0.5,0-1-0.4-1-1c0-0.5,0.4-1,1-1H686c0.5,0,1,0.4,1,1C687,313.9,686.5,314.4,686,314.4z"
				/>
		</g>
		<g>
			<path class="st2" d="M686,324.7H490.5c-0.5,0-1-0.4-1-1c0-0.5,0.4-1,1-1H686c0.5,0,1,0.4,1,1C687,324.3,686.5,324.7,686,324.7z"
				/>
		</g>
		<g>
			<path class="st2" d="M686,335.1H490.5c-0.5,0-1-0.4-1-1c0-0.5,0.4-1,1-1H686c0.5,0,1,0.4,1,1C687,334.7,686.5,335.1,686,335.1z"
				/>
		</g>
		<g>
			<path class="st2" d="M591.9,345.5H490.5c-0.5,0-1-0.4-1-1c0-0.5,0.4-1,1-1h101.4c0.5,0,1,0.4,1,1
				C592.9,345.1,592.4,345.5,591.9,345.5z"/>
		</g>
		<g>
			<path class="st2" d="M490.5,366.7c-0.5,0-0.9-0.4-1-0.9c0-0.5,0.4-1,0.9-1c2.8-0.2,5.4-1.2,7.4-2.5c-0.2-0.6-0.3-1.2-0.3-2
				c0-2.9,1.6-6.8,3.8-7.7c0.9-0.4,1.9-0.2,2.7,0.6c1,1.1,1.2,2.6,0.5,4.4c-0.7,1.7-2.1,3.6-4.1,5.1c0.1,0,0.2,0.1,0.3,0.1
				c1.1,0.5,2.5,0.3,3.7-0.3c-0.1-0.4-0.1-0.9-0.1-1.3c0.1-2,1.5-4.3,3-4.9c0.7-0.3,1.4-0.1,1.9,0.4c1,1.1,0.9,2.7-0.3,4.5
				c-0.5,0.7-1.1,1.4-1.9,2c0.1,0.1,0.3,0.2,0.5,0.3c2.8,1.4,5.5,0.3,6.3-0.3c0-0.6,0.4-0.9,0.7-1c0.4-0.1,0.9,0,1.2,0.6
				c0.1,0.1,0.1,0.3,0.1,0.5c0.4,0.5,1.6,1.4,4.6,1.5c0.5,0,0.9,0.5,0.9,1c0,0.5-0.4,0.9-1,0.9c0,0,0,0,0,0c-3.2-0.1-4.8-1-5.7-1.8
				c-1.5,1-4.7,2-8.1,0.3c-0.5-0.3-0.9-0.6-1.3-0.9c-1.7,0.8-3.6,1.1-5.3,0.4c-0.4-0.2-0.8-0.4-1.2-0.7
				C496.5,365.4,493.6,366.5,490.5,366.7C490.5,366.7,490.5,366.7,490.5,366.7z M507.8,358.2c-0.5,0.2-1.4,1.4-1.6,2.8
				c0,0.1,0,0.3,0,0.4c0.4-0.4,0.8-0.8,1.1-1.2C507.8,359.4,508,358.6,507.8,358.2z M502.2,354.4c-0.1,0-0.1,0-0.2,0
				c-1.1,0.5-2.6,3.4-2.6,5.9c0,0.2,0,0.5,0.1,0.8c1.6-1.4,2.8-2.9,3.2-4.1c0.3-0.7,0.5-1.8-0.1-2.4
				C502.5,354.4,502.4,354.4,502.2,354.4z"/>
		</g>
		<g>
			<rect x="289" y="175.6" class="st4" width="157" height="273.1"/>
		</g>
		<g>
			<path class="st2" d="M419.7,276.8h-92.1c-1.1,0-1.9-0.9-1.9-1.9s0.9-1.9,1.9-1.9h92.1c1.1,0,1.9,0.9,1.9,1.9
				S420.7,276.8,419.7,276.8z"/>
		</g>
		<g>
			<path class="st2" d="M376,283.8h-48.5c-0.5,0-1-0.4-1-1c0-0.5,0.4-1,1-1H376c0.5,0,1,0.4,1,1C377,283.3,376.5,283.8,376,283.8z"
				/>
		</g>
		<g id="SVGID-8_00000151514931720190689760000012419379555022445743_">
			<circle class="st5" cx="309.5" cy="277" r="8.9"/>
		</g>
		<g>
			<g>
				<defs>
					<circle id="SVGID_1_" cx="309.5" cy="277" r="8.9"/>
				</defs>
				<use xlink:href="#SVGID_1_"  style="overflow:visible;fill:#DFEEEF;"/>
				<clipPath id="SVGID_00000163784083746721580120000008285135605011814585_">
					<use xlink:href="#SVGID_1_"  style="overflow:visible;"/>
				</clipPath>
				<g style="clip-path:url(#SVGID_00000163784083746721580120000008285135605011814585_);">
					<g>
						<circle class="st2" cx="309.5" cy="284" r="5.1"/>
					</g>
				</g>
			</g>
		</g>
		<g>
			<circle class="st7" cx="309.5" cy="274.9" r="2.9"/>
		</g>
		<g>
			<path class="st2" d="M419.7,312.8h-92.1c-1.1,0-1.9-0.9-1.9-1.9c0-1.1,0.9-1.9,1.9-1.9h92.1c1.1,0,1.9,0.9,1.9,1.9
				C421.6,311.9,420.7,312.8,419.7,312.8z"/>
		</g>
		<g>
			<path class="st2" d="M376,319.7h-48.5c-0.5,0-1-0.4-1-1c0-0.5,0.4-1,1-1H376c0.5,0,1,0.4,1,1C377,319.3,376.5,319.7,376,319.7z"
				/>
		</g>
		<g id="SVGID-9_00000156573945731009258560000009895005937809117624_">
			<circle class="st5" cx="309.5" cy="312.9" r="8.9"/>
		</g>
		<g>
			<g>
				<defs>
					<circle id="SVGID_00000048470494510003383280000010488124727153868206_" cx="309.5" cy="312.9" r="8.9"/>
				</defs>
				<clipPath id="SVGID_00000108992830974861783120000006450978827309609907_">
					<use xlink:href="#SVGID_00000048470494510003383280000010488124727153868206_"  style="overflow:visible;"/>
				</clipPath>
				<g style="clip-path:url(#SVGID_00000108992830974861783120000006450978827309609907_);">
					<g>
						<circle class="st7" cx="309.5" cy="319.9" r="5.1"/>
					</g>
				</g>
			</g>
		</g>
		<g>
			<circle class="st7" cx="309.5" cy="310.8" r="2.9"/>
		</g>
		<g>
			<path class="st2" d="M419.7,348.7h-92.1c-1.1,0-1.9-0.9-1.9-1.9c0-1.1,0.9-1.9,1.9-1.9h92.1c1.1,0,1.9,0.9,1.9,1.9
				C421.6,347.8,420.7,348.7,419.7,348.7z"/>
		</g>
		<g>
			<path class="st2" d="M376,355.6h-48.5c-0.5,0-1-0.4-1-1c0-0.5,0.4-1,1-1H376c0.5,0,1,0.4,1,1C377,355.1,376.5,355.6,376,355.6z"
				/>
		</g>
		<g id="SVGID-10_00000023247305878703984800000010896932044389657229_">
			<circle class="st5" cx="309.5" cy="348.9" r="8.9"/>
		</g>
		<g>
			<g>
				<defs>
					<circle id="SVGID_00000075847177512908128200000012454678821254859958_" cx="309.5" cy="348.9" r="8.9"/>
				</defs>
				<clipPath id="SVGID_00000111887559971465820520000011152896161743758729_">
					<use xlink:href="#SVGID_00000075847177512908128200000012454678821254859958_"  style="overflow:visible;"/>
				</clipPath>
				<g style="clip-path:url(#SVGID_00000111887559971465820520000011152896161743758729_);">
					<g>
						<circle class="st7" cx="309.5" cy="355.9" r="5.1"/>
					</g>
				</g>
			</g>
		</g>
		<g>
			<circle class="st7" cx="309.5" cy="346.8" r="2.9"/>
		</g>
		<g>
			<path class="st2" d="M419.7,384.7h-92.1c-1.1,0-1.9-0.9-1.9-1.9s0.9-1.9,1.9-1.9h92.1c1.1,0,1.9,0.9,1.9,1.9
				S420.7,384.7,419.7,384.7z"/>
		</g>
		<g>
			<path class="st5" d="M376,391.5h-48.5c-0.5,0-1-0.4-1-1c0-0.5,0.4-1,1-1H376c0.5,0,1,0.4,1,1C377,391.1,376.5,391.5,376,391.5z"
				/>
		</g>
		<g id="SVGID-11_00000041266877076286090320000000330924648486829484_">
			<circle class="st5" cx="309.5" cy="384.8" r="8.9"/>
		</g>
		<g>
			<g>
				<defs>
					<circle id="SVGID_00000066516838683679428220000010675012085949116033_" cx="309.5" cy="384.8" r="8.9"/>
				</defs>
				<clipPath id="SVGID_00000163070917441354440990000001459940289556060573_">
					<use xlink:href="#SVGID_00000066516838683679428220000010675012085949116033_"  style="overflow:visible;"/>
				</clipPath>
				<g style="clip-path:url(#SVGID_00000163070917441354440990000001459940289556060573_);">
					<g>
						<circle class="st7" cx="309.5" cy="391.8" r="5.1"/>
					</g>
				</g>
			</g>
		</g>
		<g>
			<circle class="st7" cx="309.5" cy="382.7" r="2.9"/>
		</g>
		<g>
			<g>
				<defs>
					<path id="SVGID_00000047055654168370289460000017360652339157147320_" d="M294.5,157h465.9l0,0v18.7l0,0H289.6l0,0v-13.7
						C289.6,159.2,291.8,157,294.5,157z"/>
				</defs>
				<use xlink:href="#SVGID_00000047055654168370289460000017360652339157147320_"  style="overflow:visible;fill:#049DB8;"/>
				<clipPath id="SVGID_00000175310536360166393390000006271602072898528919_">
					<use xlink:href="#SVGID_00000047055654168370289460000017360652339157147320_"  style="overflow:visible;"/>
				</clipPath>
				
					<rect x="289.6" y="157" style="clip-path:url(#SVGID_00000175310536360166393390000006271602072898528919_);fill:#049DB8;" width="8.7" height="18.7"/>
				
					<rect x="298.3" y="157" style="clip-path:url(#SVGID_00000175310536360166393390000006271602072898528919_);fill:#049DB8;" width="8.7" height="18.7"/>
				
					<rect x="307" y="157" style="clip-path:url(#SVGID_00000175310536360166393390000006271602072898528919_);fill:#049DB8;" width="8.7" height="18.7"/>
				
					<rect x="315.7" y="157" style="clip-path:url(#SVGID_00000175310536360166393390000006271602072898528919_);fill:#049DB8;" width="8.7" height="18.7"/>
				
					<rect x="324.5" y="157" style="clip-path:url(#SVGID_00000175310536360166393390000006271602072898528919_);fill:#049DB8;" width="8.7" height="18.7"/>
				
					<rect x="333.2" y="157" style="clip-path:url(#SVGID_00000175310536360166393390000006271602072898528919_);fill:#049DB8;" width="8.7" height="18.7"/>
				
					<rect x="341.9" y="157" style="clip-path:url(#SVGID_00000175310536360166393390000006271602072898528919_);fill:#049DB8;" width="8.7" height="18.7"/>
				
					<rect x="350.6" y="157" style="clip-path:url(#SVGID_00000175310536360166393390000006271602072898528919_);fill:#049DB8;" width="8.7" height="18.7"/>
				
					<rect x="359.3" y="157" style="clip-path:url(#SVGID_00000175310536360166393390000006271602072898528919_);fill:#049DB8;" width="8.7" height="18.7"/>
				
					<rect x="368.1" y="157" style="clip-path:url(#SVGID_00000175310536360166393390000006271602072898528919_);fill:#049DB8;" width="8.7" height="18.7"/>
				
					<rect x="376.8" y="157" style="clip-path:url(#SVGID_00000175310536360166393390000006271602072898528919_);fill:#049DB8;" width="8.7" height="18.7"/>
				
					<rect x="385.5" y="157" style="clip-path:url(#SVGID_00000175310536360166393390000006271602072898528919_);fill:#049DB8;" width="8.7" height="18.7"/>
				
					<rect x="394.2" y="157" style="clip-path:url(#SVGID_00000175310536360166393390000006271602072898528919_);fill:#049DB8;" width="8.7" height="18.7"/>
				
					<rect x="402.9" y="157" style="clip-path:url(#SVGID_00000175310536360166393390000006271602072898528919_);fill:#049DB8;" width="8.7" height="18.7"/>
				
					<rect x="411.6" y="157" style="clip-path:url(#SVGID_00000175310536360166393390000006271602072898528919_);fill:#049DB8;" width="8.7" height="18.7"/>
				
					<rect x="420.4" y="157" style="clip-path:url(#SVGID_00000175310536360166393390000006271602072898528919_);fill:#049DB8;" width="8.7" height="18.7"/>
				
					<rect x="429.1" y="157" style="clip-path:url(#SVGID_00000175310536360166393390000006271602072898528919_);fill:#049DB8;" width="8.7" height="18.7"/>
				
					<rect x="437.8" y="157" style="clip-path:url(#SVGID_00000175310536360166393390000006271602072898528919_);fill:#049DB8;" width="8.7" height="18.7"/>
				
					<rect x="446.5" y="157" style="clip-path:url(#SVGID_00000175310536360166393390000006271602072898528919_);fill:#049DB8;" width="8.7" height="18.7"/>
				
					<rect x="455.2" y="157" style="clip-path:url(#SVGID_00000175310536360166393390000006271602072898528919_);fill:#049DB8;" width="8.7" height="18.7"/>
				
					<rect x="464" y="157" style="clip-path:url(#SVGID_00000175310536360166393390000006271602072898528919_);fill:#049DB8;" width="8.7" height="18.7"/>
				
					<rect x="472.7" y="157" style="clip-path:url(#SVGID_00000175310536360166393390000006271602072898528919_);fill:#049DB8;" width="8.7" height="18.7"/>
				
					<rect x="481.4" y="157" style="clip-path:url(#SVGID_00000175310536360166393390000006271602072898528919_);fill:#049DB8;" width="8.7" height="18.7"/>
				
					<rect x="490.1" y="157" style="clip-path:url(#SVGID_00000175310536360166393390000006271602072898528919_);fill:#049DB8;" width="8.7" height="18.7"/>
				
					<rect x="498.8" y="157" style="clip-path:url(#SVGID_00000175310536360166393390000006271602072898528919_);fill:#049DB8;" width="8.7" height="18.7"/>
				
					<rect x="507.5" y="157" style="clip-path:url(#SVGID_00000175310536360166393390000006271602072898528919_);fill:#049DB8;" width="8.7" height="18.7"/>
				
					<rect x="516.3" y="157" style="clip-path:url(#SVGID_00000175310536360166393390000006271602072898528919_);fill:#049DB8;" width="8.7" height="18.7"/>
				
					<rect x="525" y="157" style="clip-path:url(#SVGID_00000175310536360166393390000006271602072898528919_);fill:#049DB8;" width="8.7" height="18.7"/>
				
					<rect x="533.7" y="157" style="clip-path:url(#SVGID_00000175310536360166393390000006271602072898528919_);fill:#049DB8;" width="8.7" height="18.7"/>
				
					<rect x="542.4" y="157" style="clip-path:url(#SVGID_00000175310536360166393390000006271602072898528919_);fill:#049DB8;" width="8.7" height="18.7"/>
				
					<rect x="551.1" y="157" style="clip-path:url(#SVGID_00000175310536360166393390000006271602072898528919_);fill:#049DB8;" width="8.7" height="18.7"/>
				
					<rect x="559.9" y="157" style="clip-path:url(#SVGID_00000175310536360166393390000006271602072898528919_);fill:#049DB8;" width="8.7" height="18.7"/>
				
					<rect x="568.6" y="157" style="clip-path:url(#SVGID_00000175310536360166393390000006271602072898528919_);fill:#049DB8;" width="8.7" height="18.7"/>
				
					<rect x="577.3" y="157" style="clip-path:url(#SVGID_00000175310536360166393390000006271602072898528919_);fill:#049DB8;" width="8.7" height="18.7"/>
				
					<rect x="586" y="157" style="clip-path:url(#SVGID_00000175310536360166393390000006271602072898528919_);fill:#049DB8;" width="8.7" height="18.7"/>
				
					<rect x="594.7" y="157" style="clip-path:url(#SVGID_00000175310536360166393390000006271602072898528919_);fill:#049DB8;" width="8.7" height="18.7"/>
				
					<rect x="603.5" y="157" style="clip-path:url(#SVGID_00000175310536360166393390000006271602072898528919_);fill:#049DB8;" width="8.7" height="18.7"/>
				
					<rect x="612.2" y="157" style="clip-path:url(#SVGID_00000175310536360166393390000006271602072898528919_);fill:#049DB8;" width="8.7" height="18.7"/>
				
					<rect x="620.9" y="157" style="clip-path:url(#SVGID_00000175310536360166393390000006271602072898528919_);fill:#049DB8;" width="8.7" height="18.7"/>
				
					<rect x="629.6" y="157" style="clip-path:url(#SVGID_00000175310536360166393390000006271602072898528919_);fill:#049DB8;" width="8.7" height="18.7"/>
				
					<rect x="638.3" y="157" style="clip-path:url(#SVGID_00000175310536360166393390000006271602072898528919_);fill:#049DB8;" width="8.7" height="18.7"/>
				
					<rect x="647" y="157" style="clip-path:url(#SVGID_00000175310536360166393390000006271602072898528919_);fill:#049DB8;" width="8.7" height="18.7"/>
				
					<rect x="655.8" y="157" style="clip-path:url(#SVGID_00000175310536360166393390000006271602072898528919_);fill:#049DB8;" width="8.7" height="18.7"/>
				
					<rect x="664.5" y="157" style="clip-path:url(#SVGID_00000175310536360166393390000006271602072898528919_);fill:#049DB8;" width="8.7" height="18.7"/>
				
					<rect x="673.2" y="157" style="clip-path:url(#SVGID_00000175310536360166393390000006271602072898528919_);fill:#049DB8;" width="8.7" height="18.7"/>
				
					<rect x="681.9" y="157" style="clip-path:url(#SVGID_00000175310536360166393390000006271602072898528919_);fill:#049DB8;" width="8.7" height="18.7"/>
				
					<rect x="690.6" y="157" style="clip-path:url(#SVGID_00000175310536360166393390000006271602072898528919_);fill:#049DB8;" width="8.7" height="18.7"/>
				
					<rect x="699.4" y="157" style="clip-path:url(#SVGID_00000175310536360166393390000006271602072898528919_);fill:#049DB8;" width="8.7" height="18.7"/>
				
					<rect x="708.1" y="157" style="clip-path:url(#SVGID_00000175310536360166393390000006271602072898528919_);fill:#049DB8;" width="8.7" height="18.7"/>
				
					<rect x="716.8" y="157" style="clip-path:url(#SVGID_00000175310536360166393390000006271602072898528919_);fill:#049DB8;" width="8.7" height="18.7"/>
				
					<rect x="725.5" y="157" style="clip-path:url(#SVGID_00000175310536360166393390000006271602072898528919_);fill:#049DB8;" width="8.7" height="18.7"/>
				
					<rect x="734.2" y="157" style="clip-path:url(#SVGID_00000175310536360166393390000006271602072898528919_);fill:#049DB8;" width="8.7" height="18.7"/>
				
					<rect x="742.9" y="157" style="clip-path:url(#SVGID_00000175310536360166393390000006271602072898528919_);fill:#049DB8;" width="8.7" height="18.7"/>
				
					<rect x="751.7" y="157" style="clip-path:url(#SVGID_00000175310536360166393390000006271602072898528919_);fill:#049DB8;" width="8.7" height="18.7"/>
			</g>
		</g>
		<g>
			<path class="st12" d="M26.1,419h44.1l0,0v11l0,0H30.5c-2.4,0-4.3-2-4.3-4.3l0,0L26.1,419L26.1,419z"/>
		</g>
		<g>
			<path class="st13" d="M227.5,270.9c65.2-12.8,108,0.9,129.2,34.9c19.6,31.5-32.8,50.2,61.2,99.5c41.6,21.7,85.9,93.2-13.3,130.3
				c-106.7,39.8-251.6,81-328,16.9C0.6,488.5,89.1,298.3,227.5,270.9z"/>
		</g>
		<g>
			<path class="st0" d="M384.1,554.5H72.2c-0.5,0-1-0.4-1-1c0-0.5,0.4-1,1-1h311.9c0.5,0,1,0.4,1,1
				C385.1,554,384.6,554.5,384.1,554.5z"/>
		</g>
		<g>
			<path class="st14" d="M230.7,546.5h-100c-1.3,0-2.3-0.8-2.6-2l-17.3-62.3c-0.3-1.5,0.5-3,1.9-3.3l0.1,0c0.2-0.1,0.3-0.1,0.5-0.1
				h96.6c1.3,0,2.3,0.8,2.6,2L230.7,546.5z M113.1,480.8c-0.3,0.1-0.5,0.5-0.4,0.9l17.3,62.3c0.1,0.4,0.5,0.6,0.8,0.6h97.5
				l-17.5-63.3c-0.1-0.4-0.4-0.6-0.8-0.6h-96.5C113.3,480.7,113.2,480.7,113.1,480.8z"/>
		</g>
		<g>
			<path class="st0" d="M133.5,539.2l-13.4-49c-0.1-0.5,0.1-1,0.6-1.1c0.1,0,0.2,0,0.3,0h86.4c0.4,0,0.8,0.3,0.9,0.7l13.4,49
				c0.1,0.5-0.2,1-0.6,1.1c-0.1,0-0.2,0-0.2,0h-86.4C133.9,539.9,133.6,539.6,133.5,539.2z"/>
		</g>
		<g>
			<path class="st14" d="M128.3,545.5v4.2c0,1.6,1.3,2.9,2.9,2.9h136.1v-7.1H128.3z"/>
		</g>
		<g>
			<path class="st15" d="M181.9,519.8l-5.8,7.7c-0.4,0.5-0.9,0.7-1.5,0.7c-0.7,0-1.3-0.3-1.9-0.7l-16.5-13.2c-0.5-0.4-0.9-1-1.1-1.7
				l3.9,15.7c0.4,1.4,1.6,2.3,3,2.4h26.4c1,0,1.8-0.7,1.9-1.7c0-0.2,0-0.5-0.1-0.7l-3.6-14.7L181.9,519.8z"/>
		</g>
		<g>
			<path class="st16" d="M181.8,508.3l-13-10.5c-0.5-0.4-1.2-0.7-1.9-0.7l0,0c-0.6,0-1.2,0.2-1.5,0.7l-10,13.2
				c-0.3,0.5-0.4,1.1-0.3,1.7l0,0c0.2,0.7,0.6,1.3,1.1,1.7l6.8,5.4c-1.5-1.2-2-3.2-1.1-4.3l0,0c0.9-1.2,2.9-1.2,4.3,0l6.2,5
				L181.8,508.3L181.8,508.3z"/>
		</g>
		<g>
			<path class="st1" d="M185.2,511l-3.4-2.8l0,0l-9.2,12.1l-6.2-4.9c-1.5-1.2-3.5-1.2-4.3,0l0,0c-0.9,1.2-0.4,3.2,1.1,4.3l9.7,7.7
				c0.5,0.4,1.2,0.7,1.9,0.7c0.6,0,1.1-0.2,1.5-0.7l5.8-7.7l0,0l4.6-6.1l-0.2-1C186.2,512,185.8,511.4,185.2,511z"/>
		</g>
		<g>
			<circle class="st14" cx="166.9" cy="485.4" r="1.1"/>
		</g>
		<g>
			<path class="st14" d="M182.1,504c-0.1,0-0.2,0-0.3-0.1c-0.2-0.2-0.2-0.5,0-0.7l16.4-16.3c0.2-0.2,0.5-0.2,0.7,0
				c0.2,0.2,0.2,0.5,0,0.7l-16.4,16.3C182.4,504,182.3,504,182.1,504z"/>
		</g>
		<g>
			<path class="st14" d="M192.7,498.6c-0.1,0-0.2,0-0.3-0.1c-0.2-0.2-0.2-0.5,0-0.7l12.7-12.7c0.2-0.2,0.5-0.2,0.7,0
				c0.2,0.2,0.2,0.5,0,0.7L193,498.4C192.9,498.5,192.8,498.6,192.7,498.6z"/>
		</g>
		<g>
			<path class="st13" d="M188.2,551.3c-0.5,0-1-0.4-1-1v-6.4c0-0.5,0.4-1,1-1s1,0.4,1,1v6.4C189.1,550.9,188.7,551.3,188.2,551.3z"
				/>
		</g>
		<g>
			<path class="st0" d="M109.7,562.5c-0.5,0-1-0.4-1-1s0.4-1,1-1l293.6-1c0,0,0,0,0,0c0.5,0,1,0.4,1,1s-0.4,1-1,1L109.7,562.5
				C109.7,562.5,109.7,562.5,109.7,562.5z"/>
		</g>
		<g>
			<path class="st0" d="M270.8,430.2c0.8,0,1.5-0.7,1.5-1.5V267.4l0,0v-1.2c-15,0.7-30,2.6-44.7,5.5
				c-81.5,16-145.7,88.5-169.2,158.4H270.8z"/>
		</g>
		<g>
			<path class="st4" d="M15.3,275.3h252l0,0v147.8c0,0.8-0.6,1.4-1.4,1.4l0,0H20.8c-3,0-5.4-2.4-5.4-5.4V275.3L15.3,275.3z"/>
		</g>
		<g>
			<g>
				<defs>
					<path id="SVGID_00000176038103114114757590000017348136579655705473_" d="M20.2,257.9h242.4c2.7,0,4.8,2.2,4.8,4.8l0,0v12.4
						l0,0h-252l0,0v-12.5C15.3,260.1,17.5,257.9,20.2,257.9z"/>
				</defs>
				<use xlink:href="#SVGID_00000176038103114114757590000017348136579655705473_"  style="overflow:visible;fill:#45BBCE;"/>
				<clipPath id="SVGID_00000180355254735635461350000003837910150567986610_">
					<use xlink:href="#SVGID_00000176038103114114757590000017348136579655705473_"  style="overflow:visible;"/>
				</clipPath>
				<polygon style="clip-path:url(#SVGID_00000180355254735635461350000003837910150567986610_);fill:#45BBCE;" points="69.1,257.9 
					15.3,264 15.3,257.9 				"/>
				<polygon style="clip-path:url(#SVGID_00000180355254735635461350000003837910150567986610_);fill:#45BBCE;" points="77,257.9 
					15.3,264.9 15.3,264 69.1,257.9 				"/>
				<polygon style="clip-path:url(#SVGID_00000180355254735635461350000003837910150567986610_);fill:#45BBCE;" points="85,257.9 
					15.3,265.8 15.3,264.9 77,257.9 				"/>
				<polygon style="clip-path:url(#SVGID_00000180355254735635461350000003837910150567986610_);fill:#45BBCE;" points="92.9,257.9 
					15.3,266.7 15.3,265.8 85,257.9 				"/>
				<polygon style="clip-path:url(#SVGID_00000180355254735635461350000003837910150567986610_);fill:#45BBCE;" points="
					100.8,257.9 15.3,267.6 15.3,266.7 92.9,257.9 				"/>
				<polygon style="clip-path:url(#SVGID_00000180355254735635461350000003837910150567986610_);fill:#45BBCE;" points="
					108.7,257.9 15.3,268.5 15.3,267.6 100.8,257.9 				"/>
				<polygon style="clip-path:url(#SVGID_00000180355254735635461350000003837910150567986610_);fill:#45BBCE;" points="
					116.6,257.9 15.3,269.4 15.3,268.5 108.7,257.9 				"/>
				<polygon style="clip-path:url(#SVGID_00000180355254735635461350000003837910150567986610_);fill:#45BBCE;" points="
					124.6,257.9 15.3,270.3 15.3,269.4 116.6,257.9 				"/>
				<polygon style="clip-path:url(#SVGID_00000180355254735635461350000003837910150567986610_);fill:#45BBCE;" points="
					132.5,257.9 15.3,271.2 15.3,270.3 124.6,257.9 				"/>
				<polygon style="clip-path:url(#SVGID_00000180355254735635461350000003837910150567986610_);fill:#45BBCE;" points="
					140.4,257.9 15.3,272.1 15.3,271.2 132.5,257.9 				"/>
				<polygon style="clip-path:url(#SVGID_00000180355254735635461350000003837910150567986610_);fill:#45BBCE;" points="
					148.3,257.9 15.3,273 15.3,272.1 140.4,257.9 				"/>
				<polygon style="clip-path:url(#SVGID_00000180355254735635461350000003837910150567986610_);fill:#45BBCE;" points="
					156.3,257.9 15.3,273.9 15.3,273 148.3,257.9 				"/>
				<polygon style="clip-path:url(#SVGID_00000180355254735635461350000003837910150567986610_);fill:#45BBCE;" points="
					164.2,257.9 15.3,274.8 15.3,273.9 156.3,257.9 				"/>
				<polygon style="clip-path:url(#SVGID_00000180355254735635461350000003837910150567986610_);fill:#45BBCE;" points="
					172.1,257.9 19.7,275.2 15.3,275.2 15.3,274.8 164.2,257.9 				"/>
				<polygon style="clip-path:url(#SVGID_00000180355254735635461350000003837910150567986610_);fill:#45BBCE;" points="180,257.9 
					27.6,275.2 19.7,275.2 172.1,257.9 				"/>
				<polygon style="clip-path:url(#SVGID_00000180355254735635461350000003837910150567986610_);fill:#45BBCE;" points="
					187.9,257.9 35.5,275.2 27.6,275.2 180,257.9 				"/>
				<polygon style="clip-path:url(#SVGID_00000180355254735635461350000003837910150567986610_);fill:#45BBCE;" points="
					195.9,257.9 43.5,275.2 35.5,275.2 187.9,257.9 				"/>
				<polygon style="clip-path:url(#SVGID_00000180355254735635461350000003837910150567986610_);fill:#45BBCE;" points="
					203.8,257.9 51.4,275.2 43.5,275.2 195.9,257.9 				"/>
				<polygon style="clip-path:url(#SVGID_00000180355254735635461350000003837910150567986610_);fill:#45BBCE;" points="
					211.7,257.9 59.3,275.2 51.4,275.2 203.8,257.9 				"/>
				<polygon style="clip-path:url(#SVGID_00000180355254735635461350000003837910150567986610_);fill:#45BBCE;" points="
					219.6,257.9 67.2,275.2 59.3,275.2 211.7,257.9 				"/>
				<polygon style="clip-path:url(#SVGID_00000180355254735635461350000003837910150567986610_);fill:#45BBCE;" points="
					227.6,257.9 75.2,275.2 67.2,275.2 219.6,257.9 				"/>
				<polygon style="clip-path:url(#SVGID_00000180355254735635461350000003837910150567986610_);fill:#45BBCE;" points="
					235.5,257.9 83.1,275.2 75.2,275.2 227.6,257.9 				"/>
				<polygon style="clip-path:url(#SVGID_00000180355254735635461350000003837910150567986610_);fill:#45BBCE;" points="
					243.4,257.9 91,275.2 83.1,275.2 235.5,257.9 				"/>
				<polygon style="clip-path:url(#SVGID_00000180355254735635461350000003837910150567986610_);fill:#45BBCE;" points="
					251.3,257.9 98.9,275.2 91,275.2 243.4,257.9 				"/>
				<polygon style="clip-path:url(#SVGID_00000180355254735635461350000003837910150567986610_);fill:#45BBCE;" points="
					259.2,257.9 106.8,275.2 98.9,275.2 251.3,257.9 				"/>
				<polygon style="clip-path:url(#SVGID_00000180355254735635461350000003837910150567986610_);fill:#45BBCE;" points="
					267.2,257.9 114.8,275.2 106.8,275.2 259.2,257.9 				"/>
				<polygon style="clip-path:url(#SVGID_00000180355254735635461350000003837910150567986610_);fill:#45BBCE;" points="
					267.4,258.8 122.7,275.2 114.8,275.2 267.2,257.9 267.4,257.9 				"/>
				<polygon style="clip-path:url(#SVGID_00000180355254735635461350000003837910150567986610_);fill:#45BBCE;" points="
					267.4,259.7 130.6,275.2 122.7,275.2 267.4,258.8 				"/>
				<polygon style="clip-path:url(#SVGID_00000180355254735635461350000003837910150567986610_);fill:#45BBCE;" points="
					267.4,260.6 138.5,275.2 130.6,275.2 267.4,259.7 				"/>
				<polygon style="clip-path:url(#SVGID_00000180355254735635461350000003837910150567986610_);fill:#45BBCE;" points="
					267.4,261.5 146.5,275.2 138.5,275.2 267.4,260.6 				"/>
				<polygon style="clip-path:url(#SVGID_00000180355254735635461350000003837910150567986610_);fill:#45BBCE;" points="
					267.4,262.4 154.4,275.2 146.5,275.2 267.4,261.5 				"/>
				<polygon style="clip-path:url(#SVGID_00000180355254735635461350000003837910150567986610_);fill:#45BBCE;" points="
					267.4,263.3 162.3,275.2 154.4,275.2 267.4,262.4 				"/>
				<polygon style="clip-path:url(#SVGID_00000180355254735635461350000003837910150567986610_);fill:#45BBCE;" points="
					267.4,264.2 170.2,275.2 162.3,275.2 267.4,263.3 				"/>
				<polygon style="clip-path:url(#SVGID_00000180355254735635461350000003837910150567986610_);fill:#45BBCE;" points="
					267.4,265.1 178.1,275.2 170.2,275.2 267.4,264.2 				"/>
				<polygon style="clip-path:url(#SVGID_00000180355254735635461350000003837910150567986610_);fill:#45BBCE;" points="267.4,266 
					186.1,275.2 178.1,275.2 267.4,265.1 				"/>
				<polygon style="clip-path:url(#SVGID_00000180355254735635461350000003837910150567986610_);fill:#45BBCE;" points="
					267.4,266.9 194,275.2 186.1,275.2 267.4,266 				"/>
				<polygon style="clip-path:url(#SVGID_00000180355254735635461350000003837910150567986610_);fill:#45BBCE;" points="
					267.4,267.8 201.9,275.2 194,275.2 267.4,266.9 				"/>
				<polygon style="clip-path:url(#SVGID_00000180355254735635461350000003837910150567986610_);fill:#45BBCE;" points="
					267.4,268.7 209.8,275.2 201.9,275.2 267.4,267.8 				"/>
				<polygon style="clip-path:url(#SVGID_00000180355254735635461350000003837910150567986610_);fill:#45BBCE;" points="
					267.4,269.6 217.8,275.2 209.8,275.2 267.4,268.7 				"/>
				<polygon style="clip-path:url(#SVGID_00000180355254735635461350000003837910150567986610_);fill:#45BBCE;" points="
					267.4,270.5 225.7,275.2 217.8,275.2 267.4,269.6 				"/>
				<polygon style="clip-path:url(#SVGID_00000180355254735635461350000003837910150567986610_);fill:#45BBCE;" points="
					267.4,271.4 233.6,275.2 225.7,275.2 267.4,270.5 				"/>
				<polygon style="clip-path:url(#SVGID_00000180355254735635461350000003837910150567986610_);fill:#45BBCE;" points="
					267.4,272.3 241.5,275.2 233.6,275.2 267.4,271.4 				"/>
				<polygon style="clip-path:url(#SVGID_00000180355254735635461350000003837910150567986610_);fill:#45BBCE;" points="
					267.4,273.2 249.4,275.2 241.5,275.2 267.4,272.3 				"/>
				<polygon style="clip-path:url(#SVGID_00000180355254735635461350000003837910150567986610_);fill:#45BBCE;" points="
					267.4,274.1 257.4,275.2 249.4,275.2 267.4,273.2 				"/>
				<polygon style="clip-path:url(#SVGID_00000180355254735635461350000003837910150567986610_);fill:#45BBCE;" points="267.4,275 
					265.3,275.2 257.4,275.2 267.4,274.1 				"/>
				<polygon style="clip-path:url(#SVGID_00000180355254735635461350000003837910150567986610_);fill:#45BBCE;" points="
					265.3,275.2 267.4,275 267.4,275.2 				"/>
			</g>
		</g>
		<g>
			<circle class="st18" cx="24.4" cy="266.9" r="2.3"/>
		</g>
		<g>
			<circle class="st18" cx="32.8" cy="266.9" r="2.3"/>
		</g>
		<g>
			<circle class="st18" cx="41.1" cy="266.9" r="2.3"/>
		</g>
		<g>
			<path class="st19" d="M267.4,275.3v-12.5c0-2.7-2.2-4.8-4.8-4.8l0,0H20.2c-2.7,0-4.8,2.2-4.8,4.8l0,0v12.5l0,0v144
				c0,2.9,2.4,5.2,5.2,5.2H266c0.8,0,1.4-0.6,1.4-1.4V275.3L267.4,275.3z"/>
		</g>
		<g>
			<g>
				<defs>
					<rect id="SVGID_00000042737060932945663130000016647375259812849796_" x="6.5" y="268.6" width="117.5" height="99.9"/>
				</defs>
				<clipPath id="SVGID_00000099650555664401158230000017148552770483174036_">
					<use xlink:href="#SVGID_00000042737060932945663130000016647375259812849796_"  style="overflow:visible;"/>
				</clipPath>
				<g transform="matrix(1 0 0 1 0 0)" style="clip-path:url(#SVGID_00000099650555664401158230000017148552770483174036_);">
					<g>
						<defs>
							<rect id="SVGID_00000125566603563570470970000011785416437424375181_" x="5.6" y="267.7" width="117.5" height="99.9"/>
						</defs>
						<clipPath id="SVGID_00000156589249697115691730000009030632665636731290_">
							<use xlink:href="#SVGID_00000125566603563570470970000011785416437424375181_"  style="overflow:visible;"/>
						</clipPath>
						<g style="clip-path:url(#SVGID_00000156589249697115691730000009030632665636731290_);">
							<line class="st22" x1="79.5" y1="339" x2="49.2" y2="339"/>
							<path class="st23" d="M61.1,300.5h24.7c1.1,0,2,0.9,2,2v27.8c0,1.1-0.9,2-2,2h-43c-1.1,0-2-0.9-2-2v-32.4c0-1.1,0.9-2,2-2
								h13.3c0.3,0,0.6,0.1,0.8,0.4l3.4,3.8C60.5,300.4,60.8,300.6,61.1,300.5z"/>
							<path class="st15" d="M87.8,303.1v27.3c0,1.1-0.9,2-2,2h-43c-1.1,0-2-0.9-2-2v-27.3H87.8z"/>
							<g class="st24">
								<g transform="scale(0.24)">
									
										<image style="overflow:visible;enable-background:new    ;" width="508" height="433" id="image_00000172421821909709114240000003821782334097995711_" xlink:href="C1A42D1280B8075C.png"  transform="matrix(0.2312 0 0 0.2312 209.254 1273.4095)">
									</image>
								</g>
							</g>
						</g>
					</g>
				</g>
			</g>
		</g>
		<g>
			<g>
				<defs>
					<rect id="SVGID_00000179618766811497779420000003678526440528654762_" x="81.1" y="268.6" width="117.5" height="99.9"/>
				</defs>
				<clipPath id="SVGID_00000140711738741360706290000010799819650258619047_">
					<use xlink:href="#SVGID_00000179618766811497779420000003678526440528654762_"  style="overflow:visible;"/>
				</clipPath>
				<g transform="matrix(1 0 0 1 0 0)" style="clip-path:url(#SVGID_00000140711738741360706290000010799819650258619047_);">
					<g>
						<defs>
							<rect id="SVGID_00000137132215087422867750000006601343087064279478_" x="80.1" y="267.7" width="117.5" height="99.9"/>
						</defs>
						<clipPath id="SVGID_00000007406087935635492110000014086367343730085509_">
							<use xlink:href="#SVGID_00000137132215087422867750000006601343087064279478_"  style="overflow:visible;"/>
						</clipPath>
						<g style="clip-path:url(#SVGID_00000007406087935635492110000014086367343730085509_);">
							<line class="st22" x1="154" y1="339" x2="123.7" y2="339"/>
							<path class="st23" d="M135.6,300.5h24.7c1.1,0,2,0.9,2,2v27.8c0,1.1-0.9,2-2,2h-43c-1.1,0-2-0.9-2-2v-32.4c0-1.1,0.9-2,2-2
								h13.3c0.3,0,0.6,0.1,0.8,0.4l3.4,3.8C135.1,300.4,135.3,300.6,135.6,300.5z"/>
							<path class="st15" d="M162.3,303.1v27.3c0,1.1-0.9,2-2,2h-43c-1.1,0-2-0.9-2-2v-27.3H162.3z"/>
							<g class="st24">
								<g transform="scale(0.24)">
									
										<image style="overflow:visible;enable-background:new    ;" width="508" height="433" id="image_00000181794713014810850870000003086872455153472173_" xlink:href="C1A42D1280B8075D.png"  transform="matrix(0.2312 0 0 0.2312 519.8984 1273.4095)">
									</image>
								</g>
							</g>
						</g>
					</g>
				</g>
			</g>
		</g>
		<g>
			<g>
				<defs>
					<rect id="SVGID_00000147934419776440631350000012721793283938685882_" x="156.2" y="268.3" width="118.7" height="100.9"/>
				</defs>
				<clipPath id="SVGID_00000063630977679421110670000003325778544674581391_">
					<use xlink:href="#SVGID_00000147934419776440631350000012721793283938685882_"  style="overflow:visible;"/>
				</clipPath>
				<g style="clip-path:url(#SVGID_00000063630977679421110670000003325778544674581391_);">
					<g>
						<defs>
							<rect id="SVGID_00000106842233486345740520000005717029081087406270_" x="155.2" y="267.3" width="118.7" height="100.9"/>
						</defs>
						<clipPath id="SVGID_00000020356651716738347600000011720093541789835426_">
							<use xlink:href="#SVGID_00000106842233486345740520000005717029081087406270_"  style="overflow:visible;"/>
						</clipPath>
						<g style="clip-path:url(#SVGID_00000020356651716738347600000011720093541789835426_);">
							<line class="st22" x1="229.9" y1="339.4" x2="199.3" y2="339.4"/>
							<path class="st23" d="M211.3,300.5h25c1.1,0,2,0.9,2,2v28c0,1.1-0.9,2-2,2h-43.5c-1.1,0-2-0.9-2-2v-32.7c0-1.1,0.9-2,2-2
								h13.4c0.3,0,0.6,0.1,0.8,0.4l3.5,3.9C210.7,300.4,211,300.6,211.3,300.5z"/>
							<path class="st15" d="M238.3,303.1v27.6c0,1.1-0.9,2-2,2h-43.5c-1.1,0-2-0.9-2-2v-27.6H238.3z"/>
							<g class="st24">
								<g transform="scale(0.24)">
									
										<image style="overflow:visible;enable-background:new    ;" width="508" height="433" id="image_00000034058581545404434170000009297463320008706473_" xlink:href="C1A42D1280B8075B.png"  transform="matrix(0.2335 0 0 0.2335 834.8104 1273.5262)">
									</image>
								</g>
							</g>
						</g>
					</g>
				</g>
			</g>
		</g>
		<g>
			<g>
				<defs>
					<rect id="SVGID_00000150091946648950843390000006021881129051407014_" x="6" y="330.6" width="118.7" height="100.9"/>
				</defs>
				<clipPath id="SVGID_00000119798584500359873550000000672806179004357014_">
					<use xlink:href="#SVGID_00000150091946648950843390000006021881129051407014_"  style="overflow:visible;"/>
				</clipPath>
				<g style="clip-path:url(#SVGID_00000119798584500359873550000000672806179004357014_);">
					<g>
						<defs>
							<rect id="SVGID_00000014627485305876052320000001702698962899345283_" x="5.1" y="329.6" width="118.7" height="100.9"/>
						</defs>
						<clipPath id="SVGID_00000137127264475914337580000015456037499226945936_">
							<use xlink:href="#SVGID_00000014627485305876052320000001702698962899345283_"  style="overflow:visible;"/>
						</clipPath>
						<g style="clip-path:url(#SVGID_00000137127264475914337580000015456037499226945936_);">
							<line class="st22" x1="79.7" y1="401.7" x2="49.1" y2="401.7"/>
							<path class="st23" d="M61.2,362.8h25c1.1,0,2,0.9,2,2v28c0,1.1-0.9,2-2,2H42.7c-1.1,0-2-0.9-2-2v-32.7c0-1.1,0.9-2,2-2h13.4
								c0.3,0,0.6,0.1,0.8,0.4l3.5,3.9C60.6,362.7,60.9,362.9,61.2,362.8z"/>
							<path class="st15" d="M88.1,365.4v27.6c0,1.1-0.9,2-2,2H42.7c-1.1,0-2-0.9-2-2v-27.6H88.1z"/>
							<g class="st24">
								<g transform="scale(0.24)">
									
										<image style="overflow:visible;enable-background:new    ;" width="508" height="433" id="image_00000005984898950435331670000018283163803101442706_" xlink:href="C1A42D1280B80764.png"  transform="matrix(0.2335 0 0 0.2335 209.1596 1533.1442)">
									</image>
								</g>
							</g>
						</g>
					</g>
				</g>
			</g>
		</g>
		<g>
			<g>
				<defs>
					<rect id="SVGID_00000013163253556104242650000007020593393508713663_" x="81.8" y="330.6" width="118.7" height="100.9"/>
				</defs>
				<clipPath id="SVGID_00000020378229614248333490000000184438075683928496_">
					<use xlink:href="#SVGID_00000013163253556104242650000007020593393508713663_"  style="overflow:visible;"/>
				</clipPath>
				<g style="clip-path:url(#SVGID_00000020378229614248333490000000184438075683928496_);">
					<g>
						<defs>
							<rect id="SVGID_00000166660663976291019020000009813420186668288937_" x="80.8" y="329.6" width="118.7" height="100.9"/>
						</defs>
						<clipPath id="SVGID_00000047050361823331034160000016908625950587904412_">
							<use xlink:href="#SVGID_00000166660663976291019020000009813420186668288937_"  style="overflow:visible;"/>
						</clipPath>
						<g style="clip-path:url(#SVGID_00000047050361823331034160000016908625950587904412_);">
							<line class="st22" x1="155.5" y1="401.7" x2="124.8" y2="401.7"/>
							<path class="st23" d="M136.9,362.8h25c1.1,0,2,0.9,2,2v28c0,1.1-0.9,2-2,2h-43.5c-1.1,0-2-0.9-2-2v-32.7c0-1.1,0.9-2,2-2
								h13.4c0.3,0,0.6,0.1,0.8,0.4l3.5,3.9C136.3,362.7,136.6,362.9,136.9,362.8z"/>
							<path class="st15" d="M163.9,365.4v27.6c0,1.1-0.9,2-2,2h-43.5c-1.1,0-2-0.9-2-2v-27.6H163.9z"/>
							<g class="st24">
								<g transform="scale(0.24)">
									
										<image style="overflow:visible;enable-background:new    ;" width="508" height="433" id="image_00000092443908170437661170000003248662991515386554_" xlink:href="C1A42D1280B80767.png"  transform="matrix(0.2335 0 0 0.2335 524.6597 1533.1442)">
									</image>
								</g>
							</g>
						</g>
					</g>
				</g>
			</g>
		</g>
		<g>
			<g>
				<defs>
					<rect id="SVGID_00000115475559857103546440000017180198757106597538_" x="156.2" y="330.6" width="118.7" height="100.9"/>
				</defs>
				<clipPath id="SVGID_00000171686884088468853880000008039406117482522037_">
					<use xlink:href="#SVGID_00000115475559857103546440000017180198757106597538_"  style="overflow:visible;"/>
				</clipPath>
				<g style="clip-path:url(#SVGID_00000171686884088468853880000008039406117482522037_);">
					<g>
						<defs>
							<rect id="SVGID_00000161593496887505767900000003420643522622173860_" x="155.2" y="329.6" width="118.7" height="100.9"/>
						</defs>
						<clipPath id="SVGID_00000090288774260139260100000016133688686232101266_">
							<use xlink:href="#SVGID_00000161593496887505767900000003420643522622173860_"  style="overflow:visible;"/>
						</clipPath>
						<g style="clip-path:url(#SVGID_00000090288774260139260100000016133688686232101266_);">
							<line class="st22" x1="229.9" y1="401.7" x2="199.3" y2="401.7"/>
							<path class="st23" d="M211.3,362.8h25c1.1,0,2,0.9,2,2v28c0,1.1-0.9,2-2,2h-43.5c-1.1,0-2-0.9-2-2v-32.7c0-1.1,0.9-2,2-2
								h13.4c0.3,0,0.6,0.1,0.8,0.4l3.5,3.9C210.7,362.7,211,362.9,211.3,362.8z"/>
							<path class="st15" d="M238.3,365.4v27.6c0,1.1-0.9,2-2,2h-43.5c-1.1,0-2-0.9-2-2v-27.6H238.3z"/>
							<g class="st24">
								<g transform="scale(0.24)">
									
										<image style="overflow:visible;enable-background:new    ;" width="508" height="433" id="image_00000003082000815184203870000008653188892440324509_" xlink:href="C1A42D1280B80765.png"  transform="matrix(0.2335 0 0 0.2335 834.8104 1533.1442)">
									</image>
								</g>
							</g>
						</g>
					</g>
				</g>
			</g>
		</g>
		<g>
			<rect x="143.1" y="417.2" class="st1" width="20.9" height="10.5"/>
		</g>
		<g>
			<polygon class="st0" points="84.2,393.7 93.4,424.5 118.1,424.5 			"/>
		</g>
		<g>
			<path class="st35" d="M296.8,379.9c0,0-9.1-61.7-20.7-69.8s-35.9,1.6-41.3,9.4c-5.3,7.8,7.2,52.3,7.2,52.3l11.1-1.7l3,13.8
				L296.8,379.9z"/>
		</g>
		<g>
			<path class="st36" d="M262.1,366.3l-3.1,15.5l-3,2.2l-3-13.8C253.1,370,257.1,371.8,262.1,366.3z"/>
		</g>
		<g>
			<path class="st37" d="M252.1,390.1c0,0-1.6-9.1-1.3-9.9c0.3-0.8,28.2-21.4,46.5-15.1l5.2,14.1L252.1,390.1z"/>
		</g>
		<g>
			<path class="st38" d="M411.9,432.2c-10.5-21.7-98.5-57-98.5-57c-6.5,1-24.5,12.7-24.5,12.7l52.4,197l28.3-38.8
				C369.8,546.1,422.3,454,411.9,432.2z M357.4,511.9l-13.8-62l22.7,15.1L357.4,511.9z"/>
		</g>
		<g>
			<path class="st39" d="M375.9,452.2c-1-3.6-38.6-62-38.6-62l9.9,62.2l19.1,12.6l-5.1,27.1C365.6,481.6,376.8,455,375.9,452.2z"/>
		</g>
		<g>
			<path class="st38" d="M249,388.8c0,0,20.3-17.9,36.8-19.2c16.5-1.3,20.8,5.8,20.8,5.8C292.7,385.5,272.1,388.4,249,388.8z"/>
		</g>
		<g>
			<path class="st35" d="M106.9,359.5c-2.2-2.1-8-2.3-8-2.3l0,0c-5.8-8.4-13.5-19.7-15-18.9c-3.5,2,5.1,20.6,5.1,20.6
				c-1.3,0.9-2.6,1.9-3.8,2.9c-3.4,2.8-7.5,6.8-8.5,10.5c-1.8,6.5,8.5,15.9,8.5,15.9l24.6-15.5C109.9,372.8,109.1,361.5,106.9,359.5
				z"/>
		</g>
		<g>
			<path class="st36" d="M76.6,374.2c0.1,6.3,8.7,14.1,8.7,14.1l6.5-4.1l4.9-3.5C87.9,382.4,79.6,378.6,76.6,374.2z"/>
		</g>
		<g>
			<path class="st4" d="M104.6,366.1c-0.2,0-0.4-0.1-0.6-0.3c-0.6-0.8-1.4-2.3-2.3-4c-1-1.9-2.1-4-3.3-5.7c-0.2-0.3-0.1-0.8,0.2-1
				c0.3-0.2,0.8-0.1,1,0.2c1.2,1.7,2.3,3.9,3.3,5.8c0.9,1.6,1.7,3.1,2.2,3.8c0.2,0.3,0.2,0.8-0.1,1
				C104.9,366,104.8,366.1,104.6,366.1z"/>
		</g>
		<g>
			<polygon class="st37" points="83.2,389.2 111.9,371.3 115.6,378.4 88.1,396.5 			"/>
		</g>
		<g>
			<path class="st3" d="M387.6,604.3c0,0-40.8-193.1-43-206c-2.2-13.5-14.3-28.9-37.9-22.7c-23.6,6.2-58.3,11-86.5,22.8
				S163.9,422.1,154,426l-39.5-50.3l-30.3,18c0,0,43.4,62.7,48.3,69.6c4.9,6.9,9.1,8.8,27.9,5.7c20.1-3.4,75.5-9.8,75.5-9.8
				l15,151.3L387.6,604.3z"/>
		</g>
		<g>
			<path class="st39" d="M87.6,398.6L87.6,398.6c10.4,14.9,40.8,59,44.8,64.7c4.9,6.9,9.1,8.8,27.9,5.7c20.1-3.4,75.5-9.8,75.5-9.8
				s-69.5-0.3-82.3-5.6C140.8,448.3,87.6,398.6,87.6,398.6z"/>
		</g>
		<g>
			<path class="st1" d="M140.6,432.5c-0.4,0-0.7-0.2-0.9-0.5c-0.2-0.5,0-1,0.4-1.3l19.2-9.4c0.5-0.2,1,0,1.3,0.4
				c0.2,0.5,0,1-0.4,1.3l-19.2,9.4C140.8,432.5,140.7,432.5,140.6,432.5z"/>
		</g>
		<g>
			<path class="st0" d="M220.7,309.1c0.1,7,5.2,15.9,20.8,15.4c-1.2,13.4,9.8,7.1,10.6,15.8c0.8,8.7,8.8,13.9,16,14.3
				c7.2,0.4,23.8-4,23.8-9.2s3.9-39.6-12-40c0,0-1.2-14.2-23.5-12C240.9,294.9,237.4,311.1,220.7,309.1z"/>
		</g>
		<g>
			
				<ellipse transform="matrix(0.1706 -0.9853 0.9853 0.1706 -127.1229 531.4987)" class="st35" cx="252.2" cy="341.3" rx="8.4" ry="6.1"/>
		</g>
		<g>
			<path class="st0" d="M252.5,350.3c-0.3,0-0.6-0.2-0.7-0.6c-0.1-0.4,0.2-0.8,0.6-0.8c2.5-0.4,4.6-3.1,5.2-6.6
				c0.7-4.2-1.1-8-4.1-8.6c-2-0.3-3.9,0.8-5.3,2.9c-0.2,0.3-0.6,0.4-1,0.2c-0.3-0.2-0.4-0.7-0.2-1c1.7-2.6,4.2-4,6.8-3.6
				c3.8,0.7,6.1,5.2,5.2,10.2c-0.7,4.1-3.3,7.2-6.4,7.8C252.5,350.3,252.5,350.3,252.5,350.3z"/>
		</g>
		<g>
			<path class="st1" d="M252.1,371.7c-0.4,0-0.7-0.2-0.7-0.6c-0.1-0.4,0.2-0.8,0.6-0.9c9-1.8,10.6-6,10.6-6c0.1-0.4,0.6-0.6,1-0.5
				c0.4,0.1,0.6,0.5,0.5,0.9c-0.1,0.2-1.7,5.1-11.7,7C252.2,371.7,252.1,371.7,252.1,371.7z"/>
		</g>
		<g>
			<path class="st38" d="M150.1,438.6c-0.4,0-0.7-0.2-0.9-0.6c-0.2-0.5,0.1-1,0.6-1.2l89.5-33.7c0.5-0.2,1,0.1,1.2,0.6
				c0.2,0.5-0.1,1-0.6,1.2l-89.5,33.7C150.4,438.6,150.2,438.6,150.1,438.6z"/>
		</g>
		<g>
			<path class="st40" d="M366.2,523.3c-0.1,0-0.2,0-0.3-0.1c-0.5-0.2-0.8-0.7-0.6-1.2c6.4-18.2,22.6-67.1,21-73.6
				c-1.5-6.5-30.5-23.3-41.5-29.2c-0.5-0.2-0.6-0.8-0.4-1.3c0.2-0.5,0.8-0.6,1.3-0.4c4.1,2.2,40.4,22,42.4,30.4
				c2,8.5-20.1,72-21.1,74.7C367,523.1,366.6,523.3,366.2,523.3z"/>
		</g>
		<g>
			<path class="st38" d="M150.1,456.9c-6.4-4.8-18-3.9-23.2-1.6c2.8,4,4.7,6.7,5.5,7.9c4.7,6.6,8.8,8.6,25.7,6
				C157.2,464.3,154.3,460,150.1,456.9z"/>
		</g>
		<g>
			<path class="st13" d="M364.1,471.9c-0.1,0-0.2,0-0.2,0c-0.5-0.1-0.8-0.7-0.7-1.2l3.5-12.8c0.1-0.5,0.7-0.8,1.2-0.7
				c0.5,0.1,0.8,0.7,0.7,1.2l-3.5,12.8C364.9,471.6,364.5,471.9,364.1,471.9z"/>
		</g>
		<g>
			<path class="st40" d="M411.9,432.2c-1.8-3.2-4-6-6.9-8.4c-5.8,5.8-10.6,34,5,34.3C413.2,446.8,414.4,437.5,411.9,432.2z"/>
		</g>
		<g>
			<path class="st39" d="M251,610.5c-0.3-28.8-1.6-149.6-2.1-152.4l-12.9,2.1L251,610.5L251,610.5z"/>
		</g>
		<g>
			<path class="st13" d="M231.9,461.9c-0.4,0-0.8-0.3-0.9-0.8c-0.1-0.5,0.2-1,0.7-1.1l20-4c0.5-0.1,1,0.2,1.1,0.7
				c0.1,0.5-0.2,1-0.7,1.1l-20,4C232,461.9,232,461.9,231.9,461.9z"/>
		</g>
		<g>
			<path class="st38" d="M338.7,574.1c-0.4,0-0.8-0.3-0.9-0.8L297.9,383c-0.1-0.5,0.2-1,0.7-1.1c0.5-0.1,1,0.2,1.1,0.7L339.6,573
				c0.1,0.5-0.2,1-0.7,1.1C338.8,574.1,338.7,574.1,338.7,574.1z"/>
		</g>
		<g>
			<path class="st38" d="M285.6,609.9c-0.5,0-0.9-0.4-1-0.9l-3.4-66.1c0-0.5,0.4-1,0.9-1c0.5,0,1,0.4,1,0.9l3.4,66.1
				C286.6,609.4,286.2,609.8,285.6,609.9C285.7,609.9,285.7,609.9,285.6,609.9z"/>
		</g>
		<g>
			<path class="st41" d="M236.1,325.3c-12.9,0-15.7-7.1-15.9-7.4c-0.1-0.2,0-0.5,0.3-0.6c0.2-0.1,0.5,0,0.6,0.3
				c0,0.1,3.5,8.6,20.3,6.4c0.3,0,0.5,0.1,0.5,0.4c0,0.3-0.2,0.5-0.4,0.5C239.6,325.2,237.7,325.3,236.1,325.3z"/>
		</g>
		<g>
			<path class="st0" d="M275,297.9c-0.2,0-0.3-0.1-0.4-0.2c-4.5-8.2-18.2-6.4-18.4-6.4c-0.3,0-0.5-0.1-0.5-0.4
				c0-0.3,0.1-0.5,0.4-0.5c0.6-0.1,14.5-1.9,19.3,6.9c0.1,0.2,0,0.5-0.2,0.6C275.1,297.9,275.1,297.9,275,297.9z"/>
		</g>
		<g>
			<path class="st0" d="M274.7,355.1c-2.5,0-4.9-0.3-7.3-0.8c-0.3-0.1-0.4-0.3-0.4-0.6c0.1-0.3,0.3-0.4,0.6-0.4
				c6.7,1.6,13.8,0.9,20.1-1.9c0.2-0.1,0.5,0,0.6,0.2c0.1,0.2,0,0.5-0.2,0.6C283.9,354.1,279.3,355.1,274.7,355.1z"/>
		</g>
		<g>
			<path class="st0" d="M237.6,354.1c-0.1,0-0.1,0-0.2,0l-4-1.2c-0.1,0-0.1,0-0.2-0.1c-1.1-0.7-1.5-1.9-1.1-3l3.7-11.4
				c0.1-0.4,0.5-0.6,0.9-0.5c0.4,0.1,0.6,0.5,0.5,0.9l-3.8,11.5c-0.2,0.5,0,1,0.4,1.3l3.8,1.2c0.4,0.1,0.6,0.5,0.5,0.9
				C238.2,353.9,237.9,354.1,237.6,354.1z"/>
		</g>
		<g>
			<path class="st0" d="M241.6,358.3c-0.3,0-0.6-0.2-0.7-0.6c-0.1-0.4,0.2-0.8,0.6-0.8c2-0.4,3.7-1.5,4.5-3.2c0.2-0.3,0.6-0.5,1-0.3
				c0.3,0.2,0.5,0.6,0.3,1c-1.1,2.1-3.1,3.5-5.5,3.9C241.7,358.3,241.6,358.3,241.6,358.3z"/>
		</g>
		<g>
			<path class="st0" d="M243.7,360.8c-0.2,0-0.4-0.1-0.5-0.4c-0.1-0.3,0.1-0.5,0.3-0.6c1.1-0.3,2-0.7,2.8-1.2
				c0.2-0.1,0.5-0.1,0.7,0.1c0.1,0.2,0.1,0.5-0.1,0.7c-0.9,0.6-1.9,1-3.1,1.3C243.7,360.8,243.7,360.8,243.7,360.8z"/>
		</g>
		<g>
			<path class="st0" d="M413.3,600.7H194.2c-0.5,0-1-0.4-1-1s0.4-1,1-1h219.2c0.5,0,1,0.4,1,1S413.9,600.7,413.3,600.7z"/>
		</g>
		<g>
			<path class="st0" d="M824.9,89.1c0,0-11.3-0.4-13.3,11.9c0,0-40.7-15.2-47.1,33c0,0-20.9-9.6-38.2,11.4c-17.3,20.9,0,53.7,0,53.7
				l127.8,0.9c0,0,11.6-20.1,12.1-37.3c0.2-10.8-2.1-21.5-6.8-31.2c0,0,7.5-6.7,4.3-13.7C860.5,110.7,824.9,89.1,824.9,89.1z"/>
		</g>
		<g>
			<path class="st0" d="M863.7,117.6c-1.4-3.2-9.2-9.1-17.5-14.7c-10.6,22.9-37,80.9-44.4,96.8l31,0.2l22.6-2.7
				c3.2-6.1,10.2-21.2,10.7-34.6c0.2-10.8-2.1-21.5-6.7-31.3C859.3,131.4,866.8,124.7,863.7,117.6z"/>
		</g>
		<g>
			<path class="st0" d="M863.1,177.2c-0.1,0-0.1,0-0.2,0c-0.2-0.1-0.4-0.4-0.3-0.6c4.5-11.6,5.3-24.1,2.3-36.3
				c-0.1-0.3,0.1-0.5,0.3-0.6c0.3-0.1,0.5,0.1,0.6,0.3c3.1,12.3,2.3,25-2.3,36.8C863.5,177.1,863.3,177.2,863.1,177.2z"/>
		</g>
		<g>
			<path class="st36" d="M786.7,142.5l61,14.1c0,0,0.5,37.3-19.4,35.9c-19.9-1.5-34.3-9.2-35.9-11.3S786.7,142.5,786.7,142.5z"/>
		</g>
		<g>
			<path class="st0" d="M794.6,403c-0.2,0,36.2-2.9,37.4-2.9c1.2,0,29.3-75.5,29.3-75.5h-50.1L794.6,403z"/>
		</g>
		<g>
			<polygon class="st42" points="839.7,326 804.9,401.8 790.5,403.3 804.9,324.7 837.2,323.5 			"/>
		</g>
		<g>
			<polygon class="st0" points="742.4,324.5 736.9,408.1 796.8,405.1 822.8,321.6 			"/>
		</g>
		<g>
			<polygon class="st42" points="764.5,327.9 744,407.8 736.9,408.1 742.4,324.5 764.5,324.5 			"/>
		</g>
		<g>
			<path class="st36" d="M862.8,160l-19.7-4.5c-1.5,7.7-3.1,28.3-26.1,26.2c-25.6-2.4-27.6-32.4-27.7-38.6l-15-3.5l-16.7-3.9
				l-2.5,17.6l-24.8,174.2l138.1,2.1L862.8,160z"/>
		</g>
		<g>
			<path class="st43" d="M801.2,147.6l15-27V98.1l12.4-3.5l21.9,6.2c0,0,16.3,14.3,13.6,18.3c-5.9,9-13.1,17.4-21.5,26.9l-8.5-2.1
				l-2.5,16.4C820.1,160.6,809.3,159.1,801.2,147.6z"/>
		</g>
		<g>
			<polygon class="st44" points="829.7,142.6 829.7,160.3 831.7,160.3 834.2,143.8 			"/>
		</g>
		<g>
			<path class="st0" d="M761.2,120.8c-0.1,0-0.1,0-0.2,0c-0.2-0.1-0.3-0.4-0.2-0.6c0.1-0.3,15.2-31.9,52.5-19.4
				c0.2,0.1,0.4,0.4,0.3,0.6c-0.1,0.2-0.4,0.4-0.6,0.3c-36.5-12.3-51.2,18.6-51.4,18.9C761.5,120.7,761.4,120.8,761.2,120.8z"/>
		</g>
		<g>
			<path class="st0" d="M834.2,100.1c0,0,14,22.8,32.8,21.4l-2.1-13.1l-15.4-11.9l-13.4-1L834.2,100.1z"/>
		</g>
		<g>
			<path class="st0" d="M796,130l14.9-22.1l5.9-13l10.9-7.9l11.9,9.5c0,0-0.9,11.9-22,9.6c0,0,9.3,11.2-4.8,17.7
				c-4.8,2.2-9.3,5.1-13.2,8.7L796,130z"/>
		</g>
		<g>
			<polygon class="st45" points="833,231.3 866,253.5 865,225.1 835.6,219.5 			"/>
		</g>
		<g>
			<polygon class="st46" points="763,186.5 764.9,327.7 730.5,327.5 750.6,188.2 			"/>
		</g>
		<g>
			<path class="st0" d="M880.5,395.8H725.4c-0.5,0-1-0.4-1-1c0-0.5,0.4-1,1-1h155.1c0.5,0,1,0.4,1,1
				C881.4,395.4,881,395.8,880.5,395.8z"/>
		</g>
		<g>
			<path class="st43" d="M847,210.9l-11.4,4c0,0-1,11-0.5,11.4c0.5,0.4,14,1.8,14,1.8l2.1-14.6L847,210.9z"/>
		</g>
		<g>
			<path class="st36" d="M862.8,160c0,0,65.2,40.7,72.6,48c5,5,11.4,25.3-6.8,32.4c-14.3,5.5-79.1-10.4-79.1-10.4l-2.4-19.1
				c0,0,3-1.1,16.7-5.5L862.8,160"/>
		</g>
		<g>
			<path class="st45" d="M863.3,187.3l33.6,16.5c-14.5-3.3-25-0.9-33.3,1.6L863.3,187.3z"/>
		</g>
		<g>
			<path class="st1" d="M813.8,322C813.8,322,813.8,322,813.8,322c-0.5,0-1-0.4-1-1l3.3-158.1c0-0.5,0.4-1,1-0.9
				c0.5,0,0.9,0.4,0.9,1L814.8,321C814.8,321.6,814.3,322,813.8,322z"/>
		</g>
		<g>
			<path class="st43" d="M807.1,216.3c-0.1-1.2-1.1-2.1-2.3-2c-0.1,0-0.2,0-0.3,0c0,0-8.2,11.8-11.6,13.8l13-4.1L807.1,216.3z"/>
		</g>
		<g>
			<path class="st0" d="M803.4,226l13.8-38.5c1.1-3,4.3-4.5,7.3-3.6l21.4,7.3c3.1,1,4.6,4.3,3.7,7.4c0,0.1-0.1,0.2-0.1,0.3
				l-17.8,44.9c-1.1,2.7-4,4.1-6.7,3.6l-20.1-4.7c-3.2-0.8-5-3.9-4.3-7c0-0.1,0.1-0.2,0.1-0.3l2.7-9
				C803.3,226.2,803.4,226.1,803.4,226z"/>
		</g>
		<g class="st47">
			<path class="st1" d="M812.1,214.9l-0.9-0.3l9-25.1c0.7-1.7,2.6-2.6,4.3-2.1l20.1,6.8l-0.3,0.9l-20-6.8c-1.3-0.4-2.6,0.2-3.2,1.5
				L812.1,214.9z"/>
		</g>
		<g>
			<path class="st43" d="M826.6,218.5c1.1,2.4-3.9,6-5.8,8.8c3,5.7-2.1,14.7-7.7,17.1c-4.6,2-13.6,2.8-13.6,2.8l-11.8-17.7
				C787.6,229.6,825,215.2,826.6,218.5z"/>
		</g>
		<g>
			<path class="st36" d="M903.7,206.7c-0.1,0-0.2,0-0.3-0.1c-8.7-3.3-19.8-6.3-41.6-0.8c-0.5,0.1-1-0.2-1.2-0.7
				c-0.1-0.5,0.2-1,0.7-1.2c22.4-5.7,33.8-2.6,42.7,0.8c0.5,0.2,0.7,0.7,0.6,1.2C904.4,206.5,904.1,206.7,903.7,206.7z"/>
		</g>
		<g>
			<path class="st48" d="M800.7,225.9c-0.4,0-0.7-0.2-0.9-0.5c-0.2-0.5,0-1,0.5-1.3l8.6-4c0.5-0.2,1,0,1.3,0.5c0.2,0.5,0,1-0.5,1.3
				l-8.6,4C801,225.8,800.8,225.9,800.7,225.9z"/>
		</g>
		<g>
			<path class="st36" d="M757.7,135.7c0,0-68.1,102.5-68.1,125.2c0,22.7,16,30.5,28.9,28.3c16-2.7,82.1-41.1,82.1-41.1l-12.1-20.1
				l-37.1,9.8c0,0,18.2-39.2,20.3-60.8S757.7,135.7,757.7,135.7z"/>
		</g>
		<g>
			<path class="st45" d="M783.9,257.8c-23.6,8.2-66.6,19.8-72.5,11.7c-10.4-14,11.2-68.6,21.2-94.4c-19.5,31.5-43.1,72.5-43.1,85.9
				c0,22.7,16,30.5,28.9,28.3C729.4,287.5,763.2,269.4,783.9,257.8z"/>
		</g>
		<g>
			<path class="st49" d="M724.6,246.6c-0.4,0-0.8-0.3-0.9-0.7c-0.2-0.5,0.1-1,0.6-1.2l32.5-10.6c0.5-0.2,1,0.1,1.2,0.6
				c0.2,0.5-0.1,1-0.6,1.2l-32.5,10.6C724.8,246.6,724.7,246.6,724.6,246.6z"/>
		</g>
		<g>
			<path class="st1" d="M701,252.7c-0.1,0-0.2,0-0.3-0.1c-0.5-0.2-0.8-0.7-0.6-1.2c11.1-30.6,51.1-100.6,51.5-101.3
				c0.3-0.5,0.8-0.6,1.3-0.4c0.5,0.3,0.6,0.8,0.4,1.3c-0.4,0.7-40.4,70.5-51.4,101C701.8,252.5,701.4,252.7,701,252.7z"/>
		</g>
		<g>
			<path class="st49" d="M788.4,255.6c-0.3,0-0.6-0.2-0.8-0.4L777,238.3c-0.3-0.4-0.1-1,0.3-1.3c0.4-0.3,1-0.1,1.3,0.3l10.7,16.9
				c0.3,0.4,0.1,1-0.3,1.3C788.8,255.6,788.6,255.6,788.4,255.6z"/>
		</g>
		<g>
			<path class="st49" d="M861.8,233.3c-0.5,0-0.9-0.4-0.9-0.8l-2.2-19.3c-0.1-0.5,0.3-1,0.8-1.1c0.5-0.1,1,0.3,1.1,0.8l2.2,19.3
				c0.1,0.5-0.3,1-0.8,1.1C861.9,233.3,861.8,233.3,861.8,233.3z"/>
		</g>
		<g>
			<path class="st1" d="M826.1,161.8c-18.5,0-26.5-14.8-26.6-15c-0.2-0.5-0.1-1,0.4-1.3c0.5-0.2,1-0.1,1.3,0.4
				c0.4,0.8,10.1,18.6,33.8,12.8c0.5-0.1,1,0.2,1.2,0.7c0.1,0.5-0.2,1-0.7,1.2C832.1,161.4,829,161.8,826.1,161.8z"/>
		</g>
		<g>
			<ellipse class="st43" cx="820.6" cy="107.7" rx="5.2" ry="7.6"/>
		</g>
		<g>
			<path class="st43" d="M821.6,115.1c-0.3,0.1-0.7,0.2-1.1,0.2c-2.9,0-5.2-3.4-5.2-7.6s2.3-7.6,5.2-7.6s5.2,3.4,5.2,7.6"/>
			<path class="st43" d="M820.5,115.8c-3.1,0-5.7-3.6-5.7-8.1c0-4.5,2.5-8.1,5.7-8.1s5.7,3.5,5.7,8.1c0,0.3-0.2,0.5-0.5,0.5
				c-0.3,0-0.5-0.2-0.5-0.5c0-4-2.1-7.1-4.8-7.1s-4.8,3.1-4.8,7.1c0,3.9,2.1,7.1,4.8,7.1c0.3,0,0.6-0.1,0.9-0.2
				c0.3-0.1,0.5,0.1,0.6,0.3c0.1,0.2-0.1,0.5-0.3,0.6C821.3,115.7,820.9,115.8,820.5,115.8z"/>
		</g>
		<g>
			<path class="st44" d="M835.1,145.1c0,0-0.1,0-0.1,0l-10.5-2.9c-0.3-0.1-0.4-0.3-0.3-0.6c0.1-0.3,0.3-0.4,0.6-0.3l10.5,2.9
				c0.3,0.1,0.4,0.3,0.3,0.6C835.5,145,835.4,145.1,835.1,145.1z"/>
		</g>
		<g>
			<path class="st45" d="M935.3,208c-2.8-2.5-5.8-4.7-8.9-6.7c2.9,7.7,1.2,21.2-7.4,26.9c-7.7,5.1-34.6,6.4-47.1,6.8
				c20.1,4.1,47.8,8.8,56.6,5.3C946.6,233.3,940.4,213.1,935.3,208z"/>
		</g>
		<g>
			<path class="st1" d="M927.8,210.4c-0.2,0-0.4-0.1-0.6-0.2c-8.8-7.4-56.9-36.2-57.4-36.5c-0.5-0.3-0.6-0.9-0.3-1.3
				c0.3-0.5,0.9-0.6,1.3-0.3c2,1.2,48.7,29.2,57.6,36.6c0.4,0.3,0.5,0.9,0.1,1.3C928.3,210.3,928.1,210.4,927.8,210.4z"/>
		</g>
		<g class="st47">
			<path class="st1" d="M825.2,196.4c-1.5,0-2.6-1.2-2.6-2.6c0-1.5,1.2-2.6,2.6-2.6c1.5,0,2.6,1.2,2.6,2.6
				C827.8,195.2,826.6,196.4,825.2,196.4z M825.2,192c-0.9,0-1.7,0.8-1.7,1.7s0.8,1.7,1.7,1.7c0.9,0,1.7-0.8,1.7-1.7
				S826.1,192,825.2,192z"/>
		</g>
		<g>
			<path class="st0" d="M842.4,131c-0.1,0-0.2,0-0.3-0.1l-2.6-1.5c-0.3-0.2-0.4-0.5-0.2-0.8c0.2-0.3,0.5-0.4,0.8-0.2l2,1.2l2.1-4.6
				c0.1-0.3,0.5-0.4,0.7-0.3c0.3,0.1,0.4,0.5,0.3,0.7l-2.4,5.1c-0.1,0.1-0.2,0.3-0.3,0.3C842.5,131,842.4,131,842.4,131z"/>
		</g>
		<g>
			<path class="st0" d="M839.9,108.8c0,0,4.4,2.3,3.5,4c0,0-0.7,1.2-4.5-0.9c-3.9-2.1-4.6-2.9-4.2-4.1
				C834.9,106.4,837.9,107.6,839.9,108.8z"/>
		</g>
		<g>
			<path class="st0" d="M856.6,119.6c0,0-3.3-2.5-4.5-1.1c0,0-0.8,1,2.1,3.1c2.9,2.1,4.1,2.4,4.9,1.7
				C859.8,122.6,858.2,120.7,856.6,119.6z"/>
		</g>
		<g>
			<path class="st0" d="M835.1,115.9c-0.6,0.9-0.3,2,0.5,2.6c0.9,0.6,2,0.3,2.6-0.5c0.6-0.9,0.3-2-0.5-2.6
				C836.8,114.8,835.7,115,835.1,115.9L835.1,115.9z"/>
		</g>
		<g>
			<path class="st0" d="M849.7,124.9c-0.6,0.9-0.3,2,0.5,2.6c0.9,0.6,2,0.3,2.6-0.5c0.6-0.8,0.3-2-0.5-2.6l0,0
				C851.4,123.8,850.3,124,849.7,124.9C849.8,124.9,849.8,124.9,849.7,124.9z"/>
		</g>
		<g>
			<path class="st0" d="M838.6,134.5c-0.1,0-0.1,0-0.2,0c-0.3-0.1-6.5-2-6.9-7.7c0-0.3,0.2-0.6,0.5-0.6c0.3,0,0.6,0.2,0.6,0.5
				c0.4,5,6.1,6.7,6.1,6.7c0.3,0.1,0.5,0.4,0.4,0.7C839.1,134.4,838.8,134.5,838.6,134.5z"/>
		</g>
		<g>
			
				<rect x="845.3" y="119.2" transform="matrix(0.5214 -0.8533 0.8533 0.5214 301.4098 780.0068)" class="st1" width="1.4" height="4.2"/>
		</g>
		<g>
			<path class="st1" d="M837,124.8c-0.9,0-1.8-0.1-2.7-0.4c-4.4-1.5-6.8-6.2-5.3-10.6c1.5-4.4,6.2-6.8,10.6-5.3
				c2.1,0.7,3.9,2.2,4.9,4.2c1,2,1.2,4.3,0.5,6.4c-0.7,2.1-2.2,3.9-4.2,4.9C839.5,124.5,838.3,124.8,837,124.8z M836.9,109.3
				c-1.1,0-2.1,0.3-3.1,0.7c-1.7,0.8-2.9,2.3-3.5,4l0,0c-1.2,3.7,0.8,7.6,4.4,8.8c1.8,0.6,3.7,0.4,5.3-0.4c1.7-0.8,2.9-2.3,3.5-4
				c0.6-1.8,0.4-3.7-0.4-5.3c-0.8-1.7-2.3-2.9-4-3.5C838.4,109.5,837.7,109.3,836.9,109.3z"/>
		</g>
		<g>
			<path class="st1" d="M853.4,134c-3.4,0-6.6-2.3-7.4-5.8c-1-4.1,1.5-8.2,5.6-9.2v0c4.1-1,8.2,1.5,9.2,5.6c1,4.1-1.5,8.2-5.6,9.2
				C854.6,133.9,854,134,853.4,134z M851.9,120.3L851.9,120.3c-3.3,0.8-5.4,4.2-4.6,7.5c0.8,3.3,4.2,5.4,7.5,4.6
				c3.3-0.8,5.4-4.2,4.6-7.5C858.6,121.6,855.2,119.5,851.9,120.3z"/>
		</g>
		<g>
			<path class="st0" d="M829.7,134.2c-0.1,0-0.2,0-0.2-0.1c-1.1-0.7-2-1.8-2.3-3.2c-0.1-0.3,0.1-0.5,0.3-0.6
				c0.3-0.1,0.5,0.1,0.6,0.3c0.3,1.1,1,2,1.9,2.6c0.2,0.1,0.3,0.4,0.2,0.7C830,134.2,829.9,134.2,829.7,134.2z"/>
		</g>
		<g>
			<circle class="st0" cx="300.1" cy="166.3" r="2.3"/>
		</g>
		<g>
			<circle class="st0" cx="308.4" cy="166.3" r="2.3"/>
		</g>
		<g>
			<circle class="st0" cx="316.7" cy="166.3" r="2.3"/>
		</g>
		<g>
			<path class="st18" d="M445.6,252.7H288.3v-35.4h157.3V252.7z M289.3,251.7h155.2v-33.3H289.3V251.7z"/>
		</g>
		<g>
			<path class="st2" d="M285.1,215.3h169.5c1.1,0,2,0.9,2,2v42.1c0,1.1-0.9,2-2,2H285.1c-1.1,0-2-0.9-2-2v-42.1
				C283.2,216.2,284.1,215.3,285.1,215.3z"/>
		</g>
		<g>
			<path class="st15" d="M282.2,212.3h169.5c1.1,0,2,0.9,2,2v42.1c0,1.1-0.9,2-2,2H282.2c-1.1,0-2-0.9-2-2v-42.1
				C280.2,213.2,281.1,212.3,282.2,212.3z"/>
		</g>
		<g>
			<circle class="st1" cx="303" cy="235" r="10.9"/>
		</g>
		<g>
			<path class="st1" d="M406.4,234.3h-81.6c-1.1,0-1.9-0.9-1.9-1.9c0-1.1,0.9-1.9,1.9-1.9h81.6c1.1,0,1.9,0.9,1.9,1.9
				C408.3,233.5,407.5,234.3,406.4,234.3z"/>
		</g>
		<g>
			<path class="st1" d="M375.9,241.3h-52c-0.5,0-1-0.4-1-1s0.4-1,1-1h52c0.5,0,1,0.4,1,1S376.4,241.3,375.9,241.3z"/>
		</g>
		<g>
			<circle class="st50" cx="303" cy="232.4" r="3.5"/>
		</g>
		<g>
			<g>
				<defs>
					<circle id="SVGID_00000037672533291307067250000014468300998150941593_" cx="303" cy="235" r="10.9"/>
				</defs>
				<clipPath id="SVGID_00000038403277446104793830000006354512981767030706_">
					<use xlink:href="#SVGID_00000037672533291307067250000014468300998150941593_"  style="overflow:visible;"/>
				</clipPath>
				<g style="clip-path:url(#SVGID_00000038403277446104793830000006354512981767030706_);">
					<g>
						<circle class="st50" cx="303" cy="243.5" r="6.3"/>
					</g>
				</g>
			</g>
		</g>
		<g>
			<path class="st2" d="M419.7,194.7h-92.1c-1.1,0-1.9-0.9-1.9-1.9c0-1.1,0.9-1.9,1.9-1.9h92.1c1.1,0,1.9,0.9,1.9,1.9
				C421.6,193.9,420.7,194.7,419.7,194.7z"/>
		</g>
		<g>
			<path class="st2" d="M376,201.6h-48.5c-0.5,0-1-0.4-1-1c0-0.5,0.4-1,1-1H376c0.5,0,1,0.4,1,1C377,201.2,376.5,201.6,376,201.6z"
				/>
		</g>
		<g id="SVGID-12_00000141456692166019937690000002286750800848838794_">
			<circle class="st2" cx="309.5" cy="194.9" r="8.9"/>
		</g>
		<g>
			<g>
				<defs>
					<circle id="SVGID_00000008138735491724752370000010764655469701288067_" cx="309.5" cy="194.9" r="8.9"/>
				</defs>
				<clipPath id="SVGID_00000021083645035290557380000006169923182391790238_">
					<use xlink:href="#SVGID_00000008138735491724752370000010764655469701288067_"  style="overflow:visible;"/>
				</clipPath>
				<g style="clip-path:url(#SVGID_00000021083645035290557380000006169923182391790238_);">
					<g>
						<circle class="st53" cx="309.5" cy="201.9" r="5.1"/>
					</g>
				</g>
			</g>
		</g>
		<g>
			<circle class="st53" cx="309.5" cy="192.8" r="2.9"/>
		</g>
		<g>
			<path class="st0" d="M606.1,208.3h-93.8c-1.1,0-1.9-0.9-1.9-1.9c0-1.1,0.9-1.9,1.9-1.9h93.8c1.1,0,1.9,0.9,1.9,1.9
				C608,207.4,607.2,208.3,606.1,208.3z"/>
		</g>
		<g>
			<path class="st0" d="M563.4,215.2h-52c-0.5,0-1-0.4-1-1s0.4-1,1-1h52c0.5,0,1,0.4,1,1S563.9,215.2,563.4,215.2z"/>
		</g>
		<g id="SVGID-13_00000018198057270421843690000018306943916465633153_">
			<circle class="st54" cx="490.5" cy="208.9" r="10.9"/>
		</g>
		<g>
			<g>
				<defs>
					<circle id="SVGID_00000166645557329487564970000002020564030533928120_" cx="490.5" cy="208.9" r="10.9"/>
				</defs>
				<clipPath id="SVGID_00000052076457669652546110000011283831005487958427_">
					<use xlink:href="#SVGID_00000166645557329487564970000002020564030533928120_"  style="overflow:visible;"/>
				</clipPath>
				<g style="clip-path:url(#SVGID_00000052076457669652546110000011283831005487958427_);">
					<g>
						<circle class="st50" cx="490.5" cy="217.4" r="6.3"/>
					</g>
				</g>
			</g>
		</g>
		<g>
			<circle class="st50" cx="490.5" cy="206.4" r="3.5"/>
		</g>
		<g>
			<path class="st15" d="M517.4,415.4h-25c-1.1,0-2-0.9-2-2v-25.9l9.5-9.5h17.5c1.1,0,2,0.9,2,2v33.4
				C519.4,414.5,518.5,415.4,517.4,415.4L517.4,415.4z"/>
		</g>
		<g>
			<path class="st56" d="M498.4,387.6h-7.8l9.5-9.5v7.8C499.9,386.9,499.3,387.6,498.4,387.6L498.4,387.6z"/>
		</g>
		<g>
			<rect x="497.3" y="393.8" class="st1" width="4.1" height="11.6"/>
		</g>
		<g>
			<rect x="502.8" y="396.8" class="st1" width="4.1" height="8.5"/>
		</g>
		<g>
			<rect x="508.4" y="401.2" class="st1" width="4.1" height="4.1"/>
		</g>
		<g class="st57">
			<path class="st56" d="M517.4,378.1h-6.8c-1.3,4.2,1.1,8.8,5.3,10.2c1.1,0.4,2.3,0.5,3.5,0.3v-8.5
				C519.4,379,518.5,378.1,517.4,378.1z"/>
		</g>
		<g>
			<path class="st15" d="M557.6,415.4h-25c-1.1,0-2-0.9-2-2v-25.9l9.5-9.5h17.5c1.1,0,2,0.9,2,2v33.4
				C559.6,414.5,558.7,415.4,557.6,415.4L557.6,415.4z"/>
		</g>
		<g>
			<path class="st56" d="M538.6,387.6h-7.8l9.5-9.5v7.8C540.1,386.9,539.5,387.6,538.6,387.6L538.6,387.6z"/>
		</g>
		<g>
			<rect x="536.4" y="394.9" class="st1" width="17.4" height="2.3"/>
		</g>
		<g>
			<rect x="536.4" y="398.9" class="st1" width="17.4" height="2.3"/>
		</g>
		<g>
			<rect x="536.4" y="403" class="st1" width="9.7" height="2.3"/>
		</g>
		<g class="st57">
			<path class="st56" d="M557.6,378.1h-6.8c-0.2,0.8-0.3,1.6-0.3,2.4c0,4.4,3.6,8.1,8,8.1c0.4,0,0.8,0,1.1-0.1V380
				C559.6,379,558.7,378.1,557.6,378.1L557.6,378.1z"/>
		</g>
		<g>
			<path class="st15" d="M714.6,562C714.6,562,714.6,562,714.6,562c-1.9,0-3.9,0-5.7-0.1c-0.5,0-0.9-0.5-0.9-1c0-0.5,0.4-1,1-0.9
				c1.9,0,3.8,0.1,5.7,0.1c0.5,0,1,0.4,1,1C715.6,561.5,715.1,562,714.6,562z M720.3,561.9c-0.5,0-0.9-0.4-1-0.9c0-0.5,0.4-1,0.9-1
				c1.9,0,3.8-0.1,5.7-0.2c0.5,0,1,0.4,1,0.9c0,0.5-0.4,1-0.9,1C724.2,561.8,722.2,561.9,720.3,561.9
				C720.3,561.9,720.3,561.9,720.3,561.9z M703.2,561.7C703.1,561.7,703.1,561.7,703.2,561.7c-0.7,0-1.4-0.1-2.1-0.1
				c-1.2-0.1-2.5-0.1-3.7-0.2c-0.5,0-0.9-0.5-0.9-1c0-0.5,0.5-0.9,1-0.9c1.2,0.1,2.4,0.2,3.7,0.2c0.7,0,1.3,0.1,2,0.1
				c0.5,0,0.9,0.5,0.9,1C704.1,561.3,703.7,561.7,703.2,561.7z M731.7,561.4c-0.5,0-0.9-0.4-1-0.9c0-0.5,0.4-1,0.9-1
				c1.9-0.1,3.8-0.3,5.7-0.5c0.5,0,1,0.3,1,0.9c0.1,0.5-0.3,1-0.9,1C735.6,561.1,733.7,561.2,731.7,561.4
				C731.8,561.4,731.8,561.4,731.7,561.4z M691.7,560.9C691.7,560.9,691.7,560.8,691.7,560.9c-2-0.2-3.9-0.4-5.8-0.6
				c-0.5-0.1-0.9-0.5-0.8-1.1c0.1-0.5,0.5-0.9,1.1-0.8c1.9,0.2,3.8,0.4,5.7,0.6c0.5,0.1,0.9,0.5,0.9,1
				C692.6,560.5,692.2,560.9,691.7,560.9z M743.1,560.3c-0.5,0-0.9-0.4-0.9-0.8c-0.1-0.5,0.3-1,0.8-1.1c1.9-0.2,3.8-0.5,5.6-0.8
				c0.5-0.1,1,0.3,1.1,0.8c0.1,0.5-0.3,1-0.8,1.1c-1.9,0.3-3.8,0.5-5.7,0.8C743.2,560.3,743.2,560.3,743.1,560.3z M680.4,559.4
				c0,0-0.1,0-0.1,0c-1.9-0.3-3.8-0.6-5.7-1c-0.5-0.1-0.9-0.6-0.8-1.1c0.1-0.5,0.6-0.9,1.1-0.8c1.8,0.3,3.7,0.7,5.6,1
				c0.5,0.1,0.9,0.6,0.8,1.1C681.3,559.1,680.9,559.4,680.4,559.4z M754.4,558.6c-0.5,0-0.9-0.3-0.9-0.8c-0.1-0.5,0.3-1,0.8-1.1
				c1.9-0.3,3.8-0.7,5.6-1.1c0.5-0.1,1,0.2,1.1,0.7c0.1,0.5-0.2,1-0.7,1.1c-1.8,0.4-3.7,0.8-5.6,1.1
				C754.6,558.6,754.5,558.6,754.4,558.6z M669.2,557.3c-0.1,0-0.1,0-0.2,0c-1.9-0.4-3.8-0.9-5.6-1.3c-0.5-0.1-0.8-0.7-0.7-1.2
				c0.1-0.5,0.7-0.8,1.2-0.7c1.8,0.5,3.7,0.9,5.5,1.3c0.5,0.1,0.8,0.6,0.7,1.1C670,557,669.6,557.3,669.2,557.3z M765.6,556.2
				c-0.4,0-0.8-0.3-0.9-0.7c-0.1-0.5,0.2-1,0.7-1.1c1.9-0.4,3.7-0.9,5.5-1.4c0.5-0.1,1,0.2,1.2,0.7c0.1,0.5-0.2,1-0.7,1.2
				c-1.8,0.5-3.7,1-5.6,1.4C765.8,556.2,765.7,556.2,765.6,556.2z M658.1,554.5c-0.1,0-0.2,0-0.3,0c-1.9-0.6-3.7-1.2-5.5-1.8
				c-0.5-0.2-0.8-0.7-0.6-1.2c0.2-0.5,0.7-0.8,1.2-0.6c1.8,0.6,3.6,1.2,5.4,1.7c0.5,0.2,0.8,0.7,0.6,1.2
				C658.9,554.2,658.5,554.5,658.1,554.5z M776.7,553.3c-0.4,0-0.8-0.3-0.9-0.7c-0.2-0.5,0.1-1,0.6-1.2c1.8-0.5,3.6-1.1,5.4-1.7
				c0.5-0.2,1,0.1,1.2,0.6c0.2,0.5-0.1,1-0.6,1.2c-1.8,0.6-3.7,1.2-5.5,1.7C776.9,553.2,776.8,553.3,776.7,553.3z M647.3,550.7
				c-0.1,0-0.2,0-0.3-0.1c-1.8-0.7-3.6-1.5-5.3-2.2c-0.5-0.2-0.7-0.8-0.5-1.3c0.2-0.5,0.8-0.7,1.3-0.5c1.7,0.8,3.5,1.5,5.2,2.2
				c0.5,0.2,0.7,0.7,0.5,1.2C648.1,550.5,647.7,550.7,647.3,550.7z M787.5,549.6c-0.4,0-0.8-0.2-0.9-0.6c-0.2-0.5,0.1-1,0.6-1.2
				c1.8-0.7,3.6-1.3,5.3-2.1c0.5-0.2,1,0,1.2,0.5c0.2,0.5,0,1-0.5,1.2c-1.8,0.7-3.6,1.4-5.4,2.1
				C787.8,549.6,787.6,549.6,787.5,549.6z M636.9,546.1c-0.1,0-0.3,0-0.4-0.1c-1.7-0.9-3.4-1.8-5.1-2.7c-0.5-0.3-0.6-0.8-0.4-1.3
				c0.3-0.5,0.8-0.6,1.3-0.4c1.6,0.9,3.3,1.8,5,2.7c0.5,0.2,0.7,0.8,0.4,1.3C637.6,545.9,637.2,546.1,636.9,546.1z M798.1,545.3
				c-0.4,0-0.7-0.2-0.9-0.6c-0.2-0.5,0-1,0.5-1.3c1.7-0.8,3.5-1.6,5.2-2.4c0.5-0.2,1,0,1.3,0.4c0.2,0.5,0,1-0.4,1.3
				c-1.7,0.8-3.5,1.6-5.2,2.4C798.4,545.3,798.3,545.3,798.1,545.3z M627,540.4c-0.2,0-0.4,0-0.5-0.1c-1.6-1-3.2-2.1-4.8-3.2
				c-0.4-0.3-0.5-0.9-0.2-1.3c0.3-0.4,0.9-0.5,1.3-0.2c1.5,1.1,3.1,2.1,4.7,3.1c0.4,0.3,0.6,0.9,0.3,1.3
				C627.6,540.3,627.3,540.4,627,540.4z M808.5,540.4c-0.3,0-0.7-0.2-0.8-0.5c-0.2-0.5-0.1-1,0.4-1.3c1.7-0.9,3.3-1.8,5-2.7
				c0.5-0.3,1-0.1,1.3,0.4s0.1,1-0.4,1.3c-1.7,0.9-3.4,1.9-5.1,2.7C808.8,540.4,808.6,540.4,808.5,540.4z M818.4,534.8
				c-0.3,0-0.6-0.2-0.8-0.5c-0.3-0.5-0.1-1,0.3-1.3c1.6-1,3.2-2,4.8-3c0.4-0.3,1-0.2,1.3,0.3c0.3,0.4,0.2,1-0.3,1.3
				c-1.6,1-3.2,2.1-4.9,3.1C818.8,534.8,818.6,534.8,818.4,534.8z M617.6,533.9c-0.2,0-0.4-0.1-0.6-0.2c-1.5-1.2-3-2.4-4.5-3.7
				c-0.4-0.3-0.4-0.9-0.1-1.3c0.3-0.4,0.9-0.4,1.3-0.1c1.4,1.2,2.9,2.4,4.4,3.6c0.4,0.3,0.5,0.9,0.2,1.3
				C618.2,533.7,617.9,533.9,617.6,533.9z M828,528.5c-0.3,0-0.6-0.1-0.8-0.4c-0.3-0.4-0.2-1,0.2-1.3c1.6-1.1,3.1-2.2,4.6-3.3
				c0.4-0.3,1-0.2,1.3,0.2c0.3,0.4,0.2,1-0.2,1.3c-1.5,1.1-3.1,2.3-4.7,3.4C828.4,528.5,828.2,528.5,828,528.5z M609,526.4
				c-0.2,0-0.5-0.1-0.7-0.3c-1.4-1.3-2.8-2.7-4.1-4c-0.4-0.4-0.4-1,0-1.3c0.4-0.4,1-0.4,1.3,0c1.3,1.4,2.7,2.7,4,4
				c0.4,0.4,0.4,1,0,1.3C609.5,526.3,609.2,526.4,609,526.4z M837.2,521.7c-0.3,0-0.6-0.1-0.7-0.4c-0.3-0.4-0.3-1,0.1-1.3
				c1.5-1.2,2.9-2.4,4.4-3.7c0.4-0.3,1-0.3,1.3,0.1c0.3,0.4,0.3,1-0.1,1.3c-1.4,1.3-2.9,2.5-4.4,3.7
				C837.6,521.6,837.4,521.7,837.2,521.7z M601,518.2c-0.3,0-0.5-0.1-0.7-0.3c-1.3-1.4-2.5-2.9-3.8-4.4c-0.3-0.4-0.3-1,0.1-1.3
				c0.4-0.3,1-0.3,1.3,0.1c1.2,1.5,2.5,2.9,3.7,4.3c0.4,0.4,0.3,1-0.1,1.3C601.5,518.1,601.2,518.2,601,518.2z M871.4,517h-0.2
				c-1.9,0-3.8-0.2-5.7-0.4c-0.5-0.1-0.9-0.6-0.8-1.1c0.1-0.5,0.6-0.9,1.1-0.8c1.8,0.3,3.6,0.4,5.4,0.4h0.2c0.5,0,1,0.4,1,1
				S871.9,517,871.4,517z M877.1,516.6c-0.5,0-0.9-0.3-0.9-0.8c-0.1-0.5,0.3-1,0.8-1.1c1.8-0.3,3.6-0.7,5.4-1.3
				c0.5-0.2,1,0.1,1.2,0.6c0.2,0.5-0.1,1-0.6,1.2c-1.9,0.6-3.8,1.1-5.7,1.4C877.2,516.6,877.1,516.6,877.1,516.6z M860.1,515.3
				c-0.1,0-0.2,0-0.3,0l-0.4-0.1c-1.8-0.6-3.4-1.3-5-2c-0.5-0.2-0.7-0.8-0.5-1.3c0.2-0.5,0.8-0.7,1.3-0.5c1.5,0.7,3.1,1.3,4.8,1.9
				l0.4,0.1c0.5,0.2,0.8,0.7,0.6,1.2C860.9,515,860.5,515.3,860.1,515.3z M845.8,514.2c-0.3,0-0.5-0.1-0.7-0.3c-0.4-0.4-0.3-1,0-1.3
				c1-1,2-1.9,3-2.9c-1.3-0.9-2.5-1.9-3.6-2.9c-0.4-0.4-0.4-1-0.1-1.3c0.4-0.4,1-0.4,1.3-0.1c1.1,1.1,2.4,2.1,3.8,3
				c0.3-0.1,0.7,0,0.9,0.2c0.3,0.3,0.4,0.8,0.1,1.2c0,0.1-0.1,0.2-0.1,0.3c-0.1,0.2-0.3,0.3-0.5,0.4c-1.2,1.2-2.4,2.3-3.6,3.5
				C846.3,514.1,846,514.2,845.8,514.2z M887.9,513.1c-0.4,0-0.7-0.2-0.9-0.5c-0.2-0.5,0-1,0.5-1.3c1.6-0.8,3.3-1.7,4.9-2.7
				c0.4-0.3,1-0.1,1.3,0.3c0.3,0.4,0.1,1-0.3,1.3c-1.7,1-3.4,2-5.1,2.8C888.2,513.1,888.1,513.1,887.9,513.1z M593.7,509.4
				c-0.3,0-0.6-0.1-0.8-0.4c-1.1-1.5-2.3-3-3.5-4.6c-0.3-0.4-0.2-1,0.2-1.3c0.4-0.3,1-0.2,1.3,0.2c1.1,1.6,2.3,3.1,3.4,4.5
				c0.3,0.4,0.2,1-0.2,1.3C594.1,509.3,593.9,509.4,593.7,509.4z M897.7,507.2c-0.3,0-0.6-0.1-0.8-0.4c-0.3-0.4-0.2-1,0.2-1.3
				c1.5-1.1,2.9-2.3,4.3-3.6c0.4-0.4,1-0.3,1.3,0.1c0.4,0.4,0.3,1-0.1,1.3c-1.5,1.3-3,2.6-4.5,3.7
				C898.1,507.1,897.9,507.2,897.7,507.2z M853.9,506.1c-0.2,0-0.5-0.1-0.6-0.3c-0.4-0.4-0.4-1-0.1-1.3c1.3-1.4,2.6-2.8,3.8-4.2
				c0.3-0.4,0.9-0.4,1.3-0.1c0.4,0.3,0.4,0.9,0.1,1.3c-1.2,1.5-2.5,2.9-3.8,4.3C854.4,506,854.1,506.1,853.9,506.1z M841.5,502.7
				c-0.3,0-0.6-0.1-0.8-0.4c-1.2-1.6-2.1-3.3-3-5.1c-0.2-0.5,0-1,0.5-1.3c0.5-0.2,1,0,1.3,0.5c0.8,1.7,1.7,3.3,2.8,4.8
				c0.3,0.4,0.2,1-0.2,1.3C841.9,502.7,841.7,502.7,841.5,502.7z M587,500.2c-0.3,0-0.6-0.1-0.8-0.4c-1.1-1.6-2.2-3.2-3.2-4.7
				c-0.3-0.4-0.2-1,0.3-1.3c0.4-0.3,1-0.2,1.3,0.3c1.1,1.6,2.1,3.1,3.2,4.7c0.3,0.4,0.2,1-0.2,1.3
				C587.3,500.1,587.1,500.2,587,500.2z M906.2,499.6c-0.2,0-0.5-0.1-0.7-0.3c-0.4-0.4-0.4-1,0-1.3c1.3-1.3,2.5-2.7,3.8-4.2
				c0.3-0.4,0.9-0.5,1.3-0.1c0.4,0.3,0.5,0.9,0.1,1.3c-1.3,1.5-2.6,2.9-3.9,4.3C906.7,499.5,906.4,499.6,906.2,499.6z M861.3,497.4
				c-0.2,0-0.4-0.1-0.6-0.2c-0.4-0.3-0.5-0.9-0.2-1.3c1.2-1.5,2.3-3,3.4-4.5c0.3-0.4,0.9-0.5,1.3-0.2c0.4,0.3,0.5,0.9,0.2,1.3
				c-1.1,1.5-2.3,3.1-3.5,4.6C861.9,497.2,861.6,497.4,861.3,497.4z M836.8,492.4c-0.4,0-0.8-0.3-0.9-0.7c-0.4-1.9-0.7-3.8-0.8-5.8
				c0-0.5,0.4-1,0.9-1c0.5,0,1,0.4,1,0.9c0.1,1.9,0.4,3.7,0.8,5.5c0.1,0.5-0.2,1-0.7,1.1C836.9,492.4,836.9,492.4,836.8,492.4z
				 M913.6,490.8c-0.2,0-0.4-0.1-0.6-0.2c-0.4-0.3-0.5-0.9-0.2-1.3c1.1-1.5,2.2-3,3.3-4.6c0.3-0.4,0.9-0.6,1.3-0.3
				c0.4,0.3,0.6,0.9,0.3,1.3c-1.1,1.6-2.2,3.2-3.3,4.7C914.1,490.7,913.9,490.8,913.6,490.8z M580.6,490.7c-0.3,0-0.6-0.2-0.8-0.4
				c-1-1.6-2.1-3.2-3.1-4.8c-0.3-0.4-0.2-1,0.3-1.3c0.4-0.3,1-0.2,1.3,0.3c1,1.6,2,3.2,3.1,4.8c0.3,0.4,0.2,1-0.3,1.3
				C580.9,490.6,580.8,490.7,580.6,490.7z M868.1,488.1c-0.2,0-0.4-0.1-0.5-0.2c-0.4-0.3-0.6-0.9-0.3-1.3c1.1-1.6,2.1-3.2,3-4.8
				c0.3-0.5,0.9-0.6,1.3-0.3c0.5,0.3,0.6,0.9,0.3,1.3c-1,1.6-2,3.3-3.1,4.9C868.7,488,868.4,488.1,868.1,488.1z M920,481.3
				c-0.2,0-0.3,0-0.5-0.1c-0.4-0.3-0.6-0.9-0.3-1.3c1-1.6,1.9-3.2,2.8-4.9c0.3-0.5,0.8-0.6,1.3-0.4c0.5,0.3,0.6,0.8,0.4,1.3
				c-0.9,1.7-1.9,3.4-2.9,5C920.6,481.2,920.3,481.3,920,481.3z M574.4,481c-0.3,0-0.6-0.2-0.8-0.4c-1-1.6-2-3.2-3.1-4.8
				c-0.3-0.4-0.2-1,0.3-1.3c0.4-0.3,1-0.2,1.3,0.3c1,1.6,2,3.2,3.1,4.8c0.3,0.4,0.1,1-0.3,1.3C574.8,481,574.6,481,574.4,481z
				 M836.1,481C836,481,836,481,836.1,481c-0.6,0-1-0.5-1-1c0.1-1.9,0.4-3.8,0.8-5.8c0.1-0.5,0.6-0.9,1.1-0.7
				c0.5,0.1,0.9,0.6,0.7,1.1c-0.4,1.9-0.6,3.8-0.8,5.6C837,480.6,836.5,481,836.1,481z M873.9,478.3c-0.2,0-0.3,0-0.4-0.1
				c-0.5-0.2-0.6-0.8-0.4-1.3c0.9-1.7,1.8-3.4,2.5-5.1c0.2-0.5,0.8-0.7,1.3-0.5c0.5,0.2,0.7,0.8,0.5,1.3c-0.8,1.7-1.7,3.4-2.6,5.2
				C874.6,478.1,874.3,478.3,873.9,478.3z M568.3,471.4c-0.3,0-0.6-0.2-0.8-0.4c-1-1.6-2.1-3.2-3.1-4.8c-0.3-0.4-0.2-1,0.3-1.3
				c0.4-0.3,1-0.2,1.3,0.3c1.1,1.6,2.1,3.2,3.2,4.8c0.3,0.4,0.2,1-0.3,1.3C568.6,471.3,568.5,471.4,568.3,471.4z M925.5,471.3
				c-0.1,0-0.3,0-0.4-0.1c-0.5-0.2-0.7-0.8-0.4-1.3c0.8-1.7,1.7-3.4,2.4-5.1c0.2-0.5,0.8-0.7,1.3-0.5c0.5,0.2,0.7,0.8,0.5,1.3
				c-0.8,1.8-1.6,3.5-2.5,5.2C926.2,471.1,925.8,471.3,925.5,471.3z M838.3,469.8c-0.1,0-0.2,0-0.3,0c-0.5-0.2-0.8-0.7-0.6-1.2
				c0.6-1.8,1.2-3.6,1.9-5.5c0.2-0.5,0.8-0.7,1.2-0.5c0.5,0.2,0.7,0.8,0.5,1.2c-0.7,1.8-1.3,3.6-1.9,5.3
				C839,469.5,838.7,469.8,838.3,469.8z M878.8,467.9c-0.1,0-0.2,0-0.4-0.1c-0.5-0.2-0.7-0.7-0.5-1.2c0.7-1.8,1.3-3.6,1.9-5.3
				c0.2-0.5,0.7-0.8,1.2-0.6c0.5,0.2,0.8,0.7,0.6,1.2c-0.6,1.8-1.2,3.6-1.9,5.5C879.5,467.7,879.2,467.9,878.8,467.9z M561.9,461.9
				c-0.3,0-0.6-0.1-0.8-0.4c-1.1-1.6-2.3-3.2-3.3-4.6c-0.3-0.4-0.2-1,0.2-1.3c0.4-0.3,1-0.2,1.3,0.2c1.1,1.5,2.2,3,3.4,4.7
				c0.3,0.4,0.2,1-0.2,1.3C562.3,461.8,562.1,461.9,561.9,461.9z M930.2,460.9c-0.1,0-0.2,0-0.4-0.1c-0.5-0.2-0.7-0.8-0.5-1.2
				c0.7-1.7,1.4-3.5,2.1-5.3c0.2-0.5,0.7-0.7,1.2-0.6c0.5,0.2,0.7,0.7,0.6,1.2c-0.7,1.8-1.4,3.6-2.1,5.4
				C930.9,460.6,930.6,460.9,930.2,460.9z M842.5,459.2c-0.1,0-0.3,0-0.4-0.1c-0.5-0.2-0.7-0.8-0.4-1.3c0.9-1.7,1.8-3.4,2.8-5.1
				c0.3-0.5,0.9-0.6,1.3-0.3c0.5,0.3,0.6,0.9,0.3,1.3c-1,1.6-1.9,3.3-2.7,5C843.2,459,842.9,459.2,842.5,459.2z M882.2,457
				c-0.1,0-0.1,0-0.2,0c-0.5-0.1-0.8-0.6-0.7-1.1c0.4-1.9,0.7-3.8,0.9-5.5c0.1-0.5,0.5-0.9,1.1-0.8c0.5,0.1,0.9,0.5,0.8,1.1
				c-0.2,1.8-0.5,3.8-1,5.7C883,456.7,882.6,457,882.2,457z M555,452.7c-0.3,0-0.6-0.1-0.7-0.4c-1.2-1.5-2.4-3-3.6-4.4
				c-0.3-0.4-0.3-1,0.1-1.3c0.4-0.3,1-0.3,1.3,0.1c1.2,1.4,2.5,2.9,3.7,4.4c0.3,0.4,0.3,1-0.1,1.3
				C555.5,452.6,555.3,452.7,555,452.7z M934.2,450.1c-0.1,0-0.2,0-0.3,0c-0.5-0.2-0.8-0.7-0.6-1.2c0.6-1.8,1.2-3.6,1.7-5.4
				c0.2-0.5,0.7-0.8,1.2-0.6c0.5,0.2,0.8,0.7,0.6,1.2c-0.6,1.8-1.1,3.7-1.7,5.5C934.9,449.9,934.6,450.1,934.2,450.1z M848.4,449.3
				c-0.2,0-0.4-0.1-0.5-0.2c-0.4-0.3-0.5-0.9-0.2-1.3c1.1-1.6,2.3-3.2,3.5-4.6c0.3-0.4,0.9-0.5,1.3-0.1c0.4,0.3,0.5,0.9,0.1,1.3
				c-1.2,1.4-2.3,2.9-3.4,4.5C849,449.2,848.7,449.3,848.4,449.3z M883.3,445.6c-0.5,0-0.9-0.4-1-0.9c-0.1-2-0.4-3.8-0.8-5.4
				c-0.1-0.5,0.2-1,0.7-1.2c0.5-0.1,1,0.1,1.2,0.7c0.5,1.8,0.8,3.7,0.9,5.9C884.3,445.2,883.9,445.6,883.3,445.6
				C883.4,445.6,883.4,445.6,883.3,445.6z M547.5,444.1c-0.2,0-0.5-0.1-0.7-0.3c-1.3-1.4-2.7-2.7-4-4c-0.4-0.4-0.4-1-0.1-1.3
				c0.4-0.4,1-0.4,1.3-0.1c1.4,1.3,2.8,2.6,4.1,4c0.4,0.4,0.4,1,0,1.3C548,444,547.8,444.1,547.5,444.1z M855.7,440.5
				c-0.2,0-0.5-0.1-0.7-0.3c-0.4-0.4-0.4-1,0-1.3c1.4-1.4,2.9-2.8,4.3-3.9c0.4-0.3,1-0.3,1.3,0.1c0.3,0.4,0.3,1-0.1,1.3
				c-1.4,1.1-2.8,2.4-4.2,3.8C856.2,440.4,855.9,440.5,855.7,440.5z M937.5,439.2c-0.1,0-0.2,0-0.2,0c-0.5-0.1-0.8-0.7-0.7-1.2
				c0.5-1.8,1-3.7,1.4-5.5c0.1-0.5,0.6-0.8,1.1-0.7c0.5,0.1,0.8,0.6,0.7,1.1c-0.4,1.9-0.9,3.7-1.4,5.6
				C938.3,438.9,937.9,439.2,937.5,439.2z M539.1,436.4c-0.2,0-0.4-0.1-0.6-0.2c-1.5-1.2-3-2.4-4.5-3.4c-0.4-0.3-0.5-0.9-0.2-1.3
				c0.3-0.4,0.9-0.5,1.3-0.2c1.5,1.1,3.1,2.3,4.6,3.5c0.4,0.3,0.5,0.9,0.1,1.3C539.7,436.2,539.4,436.4,539.1,436.4z M880,434.9
				c-0.3,0-0.6-0.1-0.8-0.4c-0.6-0.8-1.3-1.5-2.1-2.1c-0.6-0.4-1.2-0.8-1.9-1c-0.5-0.2-0.8-0.7-0.6-1.2c0.2-0.5,0.7-0.8,1.2-0.6
				c0.9,0.3,1.7,0.7,2.4,1.3c0.9,0.7,1.8,1.5,2.5,2.5c0.3,0.4,0.2,1-0.2,1.3C880.4,434.8,880.2,434.9,880,434.9z M864.6,433.5
				c-0.3,0-0.7-0.2-0.8-0.5c-0.3-0.5-0.1-1,0.4-1.3c1.9-1.1,3.8-1.8,5.5-2.2c0.5-0.1,1,0.2,1.1,0.7c0.1,0.5-0.2,1-0.7,1.1
				c-1.6,0.4-3.3,1.1-5,2C864.9,433.4,864.8,433.5,864.6,433.5z M529.8,429.8c-0.2,0-0.3,0-0.5-0.1c-1.6-1-3.2-1.9-4.9-2.8
				c-0.5-0.2-0.7-0.8-0.4-1.3c0.2-0.5,0.8-0.7,1.3-0.4c1.7,0.9,3.4,1.8,5,2.8c0.4,0.3,0.6,0.9,0.3,1.3
				C530.4,429.6,530.1,429.8,529.8,429.8z M940.1,428c-0.1,0-0.1,0-0.2,0c-0.5-0.1-0.8-0.6-0.7-1.1c0.4-1.8,0.7-3.7,1.1-5.6
				c0.1-0.5,0.6-0.9,1.1-0.8c0.5,0.1,0.9,0.6,0.8,1.1c-0.3,1.9-0.7,3.8-1.1,5.7C940.9,427.7,940.5,428,940.1,428z M942,416.7
				c0,0-0.1,0-0.1,0c-0.5-0.1-0.9-0.6-0.8-1.1c0.3-1.9,0.5-3.8,0.7-5.6c0.1-0.5,0.5-0.9,1.1-0.8c0.5,0.1,0.9,0.5,0.8,1.1
				c-0.2,1.9-0.5,3.8-0.7,5.7C942.9,416.4,942.5,416.7,942,416.7z M943.3,405.4C943.3,405.4,943.3,405.4,943.3,405.4
				c-0.6,0-1-0.5-1-1c0.2-1.9,0.3-3.8,0.4-5.7c0-0.5,0.5-1,1-0.9c0.5,0,0.9,0.5,0.9,1c-0.1,1.9-0.2,3.9-0.4,5.7
				C944.2,405,943.8,405.4,943.3,405.4z M944,394C944,394,944,394,944,394c-0.6,0-1-0.5-1-1c0-1.7,0.1-3.4,0.1-5.1l0-0.6
				c0-0.5,0.4-1,0.9-1c0,0,0,0,0,0c0.5,0,1,0.4,1,0.9l0,0.6c0,1.7,0,3.4-0.1,5.1C944.9,393.5,944.5,394,944,394z M943.9,382.5
				c-0.5,0-0.9-0.4-1-0.9c-0.1-1.9-0.2-3.8-0.3-5.7c0-0.5,0.4-1,0.9-1c0.5,0,1,0.4,1,0.9c0.1,1.9,0.2,3.8,0.3,5.7
				C944.9,382.1,944.5,382.5,943.9,382.5C944,382.5,944,382.5,943.9,382.5z M943.2,371.1c-0.5,0-0.9-0.4-0.9-0.9
				c-0.2-1.9-0.4-3.8-0.6-5.7c-0.1-0.5,0.3-1,0.8-1.1c0.5-0.1,1,0.3,1.1,0.8c0.2,1.9,0.5,3.8,0.6,5.7
				C944.2,370.6,943.8,371.1,943.2,371.1C943.3,371.1,943.2,371.1,943.2,371.1z M941.8,359.8c-0.5,0-0.9-0.3-0.9-0.8
				c-0.3-1.9-0.6-3.8-1-5.6c-0.1-0.5,0.2-1,0.8-1.1c0.5-0.1,1,0.2,1.1,0.8c0.4,1.9,0.7,3.8,1,5.7c0.1,0.5-0.3,1-0.8,1.1
				C941.9,359.8,941.8,359.8,941.8,359.8z M939.6,348.5c-0.4,0-0.8-0.3-0.9-0.7c-0.4-1.9-0.9-3.7-1.4-5.5c-0.1-0.5,0.2-1,0.7-1.2
				c0.5-0.1,1,0.2,1.2,0.7c0.5,1.8,1,3.7,1.4,5.6c0.1,0.5-0.2,1-0.7,1.1C939.7,348.5,939.6,348.5,939.6,348.5z M936.6,337.5
				c-0.4,0-0.8-0.3-0.9-0.7c-0.6-1.8-1.1-3.6-1.8-5.4c-0.2-0.5,0.1-1,0.6-1.2c0.5-0.2,1,0.1,1.2,0.6c0.6,1.8,1.2,3.6,1.8,5.5
				c0.2,0.5-0.1,1-0.6,1.2C936.8,337.5,936.7,337.5,936.6,337.5z M932.8,326.7c-0.4,0-0.7-0.2-0.9-0.6c-0.7-1.8-1.4-3.5-2.2-5.3
				c-0.2-0.5,0-1,0.5-1.3c0.5-0.2,1,0,1.3,0.5c0.8,1.7,1.5,3.5,2.2,5.3c0.2,0.5-0.1,1-0.5,1.2C933.1,326.7,933,326.7,932.8,326.7z
				 M928.3,316.2c-0.4,0-0.7-0.2-0.9-0.5c-0.8-1.7-1.7-3.4-2.6-5.1c-0.2-0.5-0.1-1,0.4-1.3c0.5-0.3,1-0.1,1.3,0.4
				c0.9,1.7,1.8,3.4,2.6,5.1c0.2,0.5,0,1-0.4,1.3C928.6,316.2,928.4,316.2,928.3,316.2z M922.9,306.1c-0.3,0-0.6-0.2-0.8-0.5
				c-1-1.6-2-3.3-3-4.8c-0.3-0.4-0.2-1,0.3-1.3c0.4-0.3,1-0.2,1.3,0.3c1,1.6,2,3.2,3,4.9c0.3,0.5,0.1,1-0.3,1.3
				C923.3,306.1,923.1,306.1,922.9,306.1z M916.8,296.5c-0.3,0-0.6-0.1-0.8-0.4c-1.1-1.5-2.2-3.1-3.4-4.6c-0.3-0.4-0.2-1,0.2-1.3
				c0.4-0.3,1-0.2,1.3,0.2c1.2,1.5,2.3,3.1,3.4,4.7c0.3,0.4,0.2,1-0.2,1.3C917.1,296.4,917,296.5,916.8,296.5z M909.8,287.4
				c-0.3,0-0.5-0.1-0.7-0.3c-1.2-1.4-2.5-2.9-3.7-4.3c-0.4-0.4-0.3-1,0.1-1.3c0.4-0.4,1-0.3,1.3,0.1c1.3,1.4,2.6,2.9,3.8,4.4
				c0.3,0.4,0.3,1-0.1,1.3C910.3,287.3,910,287.4,909.8,287.4z M902.1,278.9c-0.2,0-0.5-0.1-0.7-0.3c-1.3-1.3-2.7-2.7-4.1-4
				c-0.4-0.4-0.4-1,0-1.3c0.4-0.4,1-0.4,1.3,0c1.4,1.3,2.8,2.7,4.1,4c0.4,0.4,0.4,1,0,1.3C902.6,278.8,902.4,278.9,902.1,278.9z"/>
		</g>
		<g>
			<path class="st15" d="M102.8,287.5c-0.1,0-0.2,0-0.3,0c-0.5-0.2-0.8-0.7-0.6-1.2c0.6-1.7,1.2-3.6,1.9-5.4
				c0.2-0.5,0.7-0.7,1.2-0.5c0.5,0.2,0.7,0.7,0.5,1.2c-0.7,1.8-1.4,3.6-1.9,5.3C103.6,287.2,103.2,287.5,102.8,287.5z M106.9,276.8
				c-0.1,0-0.3,0-0.4-0.1c-0.5-0.2-0.7-0.8-0.5-1.3c0.7-1.7,1.5-3.5,2.4-5.3c0.2-0.5,0.8-0.7,1.3-0.5c0.5,0.2,0.7,0.8,0.5,1.3
				c-0.8,1.7-1.6,3.5-2.3,5.2C107.6,276.6,107.3,276.8,106.9,276.8z M111.8,266.4c-0.1,0-0.3,0-0.4-0.1c-0.5-0.2-0.7-0.8-0.4-1.3
				c0.9-1.7,1.8-3.4,2.7-5.1c0.2-0.5,0.8-0.6,1.3-0.4c0.5,0.3,0.6,0.8,0.4,1.3c-0.9,1.7-1.8,3.4-2.6,5
				C112.4,266.2,112.1,266.4,111.8,266.4z M117.2,256.3c-0.2,0-0.3,0-0.5-0.1c-0.5-0.3-0.6-0.8-0.4-1.3c0.9-1.6,1.9-3.3,2.9-5
				c0.3-0.5,0.9-0.6,1.3-0.3c0.5,0.3,0.6,0.9,0.3,1.3c-1,1.7-2,3.3-2.9,4.9C117.8,256.2,117.5,256.3,117.2,256.3z M123.1,246.5
				c-0.2,0-0.4,0-0.5-0.1c-0.4-0.3-0.6-0.9-0.3-1.3c1-1.6,2.1-3.2,3.1-4.8c0.3-0.4,0.9-0.6,1.3-0.3c0.4,0.3,0.6,0.9,0.3,1.3
				c-1.1,1.6-2.1,3.2-3.1,4.8C123.7,246.4,123.4,246.5,123.1,246.5z M129.5,237c-0.2,0-0.4-0.1-0.5-0.2c-0.4-0.3-0.5-0.9-0.2-1.3
				c1.1-1.5,2.2-3.1,3.4-4.7c0.3-0.4,0.9-0.5,1.3-0.2c0.4,0.3,0.5,0.9,0.2,1.3c-1.1,1.6-2.3,3.1-3.3,4.6
				C130.1,236.9,129.8,237,129.5,237z M136.3,227.8c-0.2,0-0.4-0.1-0.6-0.2c-0.4-0.3-0.5-0.9-0.2-1.3c1.2-1.5,2.3-3,3.5-4.5
				c0.3-0.4,0.9-0.5,1.3-0.1c0.4,0.3,0.5,0.9,0.1,1.3c-1.2,1.5-2.4,3-3.5,4.5C136.8,227.7,136.6,227.8,136.3,227.8z M143.4,218.9
				c-0.2,0-0.4-0.1-0.6-0.2c-0.4-0.3-0.5-0.9-0.1-1.3c1.2-1.5,2.5-2.9,3.7-4.4c0.3-0.4,1-0.4,1.3-0.1c0.4,0.3,0.4,0.9,0.1,1.3
				c-1.3,1.4-2.5,2.9-3.7,4.3C144,218.8,143.7,218.9,143.4,218.9z M151,210.3c-0.2,0-0.5-0.1-0.6-0.2c-0.4-0.4-0.4-1-0.1-1.3
				c1.3-1.4,2.6-2.8,3.9-4.2c0.4-0.4,1-0.4,1.3,0c0.4,0.4,0.4,1,0,1.3c-1.3,1.4-2.6,2.8-3.9,4.2C151.5,210.2,151.2,210.3,151,210.3z
				 M393.2,207.3c-0.1,0-0.1,0-0.2,0c-1.9-0.4-3.7-1-5.6-1.7c-0.5-0.2-0.7-0.7-0.6-1.2c0.2-0.5,0.7-0.7,1.2-0.6
				c1.8,0.6,3.6,1.2,5.3,1.6c0.5,0.1,0.8,0.6,0.7,1.1C394,207,393.6,207.3,393.2,207.3z M382.5,203.4c-0.1,0-0.3,0-0.4-0.1
				c-1.7-0.8-3.4-1.8-5.1-2.8c-0.4-0.3-0.6-0.9-0.3-1.3c0.3-0.4,0.9-0.6,1.3-0.3c1.6,1,3.3,1.9,4.9,2.7c0.5,0.2,0.7,0.8,0.4,1.3
				C383.2,203.2,382.8,203.4,382.5,203.4z M158.8,201.9c-0.2,0-0.5-0.1-0.7-0.3c-0.4-0.4-0.4-1,0-1.3c1.3-1.4,2.7-2.7,4.1-4
				c0.4-0.4,1-0.4,1.3,0c0.4,0.4,0.4,1,0,1.3c-1.4,1.3-2.7,2.7-4,4C159.3,201.9,159.1,201.9,158.8,201.9z M372.8,197.5
				c-0.2,0-0.4-0.1-0.6-0.2c-1.5-1.1-3-2.3-4.6-3.5c-0.4-0.3-0.5-0.9-0.1-1.3c0.3-0.4,0.9-0.5,1.3-0.1c1.5,1.2,3,2.4,4.5,3.5
				c0.4,0.3,0.5,0.9,0.2,1.3C373.3,197.3,373,197.5,372.8,197.5z M167,194c-0.3,0-0.5-0.1-0.7-0.3c-0.4-0.4-0.3-1,0-1.3
				c1.4-1.3,2.8-2.6,4.2-3.9c0.4-0.4,1-0.3,1.3,0.1c0.4,0.4,0.3,1-0.1,1.3c-1.4,1.3-2.8,2.6-4.2,3.9C167.5,193.9,167.3,194,167,194z
				 M363.9,190.2c-0.2,0-0.5-0.1-0.6-0.2c-1.4-1.2-2.8-2.6-4.2-3.9c-0.4-0.4-0.4-1,0-1.3c0.4-0.4,1-0.4,1.3,0
				c1.4,1.4,2.8,2.7,4.1,3.9c0.4,0.4,0.4,1,0.1,1.3C364.4,190.1,364.2,190.2,363.9,190.2z M205,188.9c-1.5,0-3-0.1-4.5-0.3
				c-0.5-0.1-0.9-0.6-0.8-1.1c0.1-0.5,0.6-0.9,1.1-0.8c1.8,0.3,3.6,0.3,5.5,0.3c0.5,0,1,0.4,1,0.9c0,0.5-0.4,1-0.9,1
				C205.9,188.9,205.4,188.9,205,188.9z M212,188.3c-0.5,0-0.9-0.3-0.9-0.8c-0.1-0.5,0.3-1,0.8-1.1c1.9-0.3,3.7-0.7,5.5-1.2
				c0.5-0.1,1,0.2,1.2,0.7c0.1,0.5-0.2,1-0.7,1.2c-1.8,0.5-3.7,0.9-5.7,1.3C212.1,188.3,212.1,188.3,212,188.3z M195.1,187.2
				c-0.1,0-0.2,0-0.4-0.1c-1.9-0.7-3.6-1.7-5.2-2.9c-0.4-0.3-0.5-0.9-0.2-1.3c0.3-0.4,0.9-0.5,1.3-0.2c1.5,1.1,3.1,2,4.8,2.6
				c0.5,0.2,0.7,0.7,0.5,1.2C195.9,186.9,195.5,187.2,195.1,187.2z M175.6,186.3c-0.3,0-0.5-0.1-0.7-0.3c-0.3-0.4-0.3-1,0.1-1.3
				c1.4-1.2,2.9-2.5,4.4-3.7c0.4-0.3,1-0.3,1.3,0.1c0.3,0.4,0.3,1-0.1,1.3c-1.5,1.2-2.9,2.4-4.4,3.7
				C176,186.2,175.8,186.3,175.6,186.3z M223,185.2c-0.4,0-0.7-0.2-0.9-0.6c-0.2-0.5,0-1,0.5-1.2c1.8-0.7,3.5-1.5,5-2.4
				c0.5-0.3,1-0.1,1.3,0.4c0.3,0.5,0.1,1-0.4,1.3c-1.6,0.9-3.4,1.8-5.3,2.6C223.3,185.2,223.1,185.2,223,185.2z M355.7,182.2
				c-0.2,0-0.5-0.1-0.7-0.3c-1.3-1.4-2.6-2.7-4-4.1c-0.4-0.4-0.3-1,0-1.3c0.4-0.4,1-0.3,1.3,0c1.3,1.4,2.6,2.8,3.9,4.1
				c0.4,0.4,0.4,1,0,1.3C356.2,182.2,355.9,182.2,355.7,182.2z M186,180.5c-0.3,0-0.6-0.1-0.7-0.4c-0.3-0.4-0.6-0.7-0.8-1.1
				c-0.3,0-0.6-0.1-0.8-0.4c-0.2-0.3-0.3-0.7-0.1-1c-0.5-0.8-1-1.7-1.4-2.6c-0.2-0.5,0-1,0.5-1.3c0.5-0.2,1,0,1.3,0.5
				c0.3,0.7,0.7,1.4,1.1,2.1c1.1-0.9,2.2-1.7,3.3-2.6c0.4-0.3,1-0.2,1.3,0.2c0.3,0.4,0.2,1-0.2,1.3c-1.2,0.9-2.3,1.8-3.4,2.6
				c0.2,0.3,0.5,0.6,0.7,0.9c0.3,0.4,0.3,1-0.1,1.3C186.4,180.4,186.2,180.5,186,180.5z M232.9,179.5c-0.3,0-0.6-0.1-0.7-0.4
				c-0.3-0.4-0.3-1,0.1-1.3c1.5-1.2,2.8-2.5,3.9-3.9c0.3-0.4,0.9-0.5,1.3-0.1c0.4,0.3,0.5,0.9,0.1,1.3c-1.2,1.5-2.6,2.9-4.2,4.2
				C233.3,179.4,233.1,179.5,232.9,179.5z M347.8,173.9c-0.3,0-0.5-0.1-0.7-0.3c-1.3-1.4-2.6-2.8-3.9-4.2c-0.4-0.4-0.3-1,0.1-1.3
				c0.4-0.4,1-0.3,1.3,0.1c1.3,1.4,2.6,2.8,3.9,4.2c0.4,0.4,0.3,1-0.1,1.3C348.3,173.8,348.1,173.9,347.8,173.9z M193.5,172.1
				c-0.3,0-0.6-0.1-0.8-0.4c-0.3-0.4-0.2-1,0.2-1.3c1.2-0.9,2.4-1.8,3.7-2.6c0.3-0.2,0.7-0.5,1-0.7c0.4-0.3,1-0.2,1.3,0.2
				c0.3,0.4,0.2,1-0.2,1.3c-0.3,0.2-0.7,0.5-1,0.7c-1.2,0.9-2.4,1.7-3.6,2.6C193.9,172,193.7,172.1,193.5,172.1z M239.9,170.6
				c-0.1,0-0.3,0-0.4-0.1c-0.5-0.2-0.7-0.8-0.5-1.3c0.8-1.8,1.2-3.5,1.2-5.2c0-0.5,0.4-0.9,1-0.9c0,0,0,0,0,0c0.5,0,1,0.4,0.9,1
				c0,1.9-0.5,3.9-1.4,5.9C240.7,170.4,240.3,170.6,239.9,170.6z M181.1,170.2c-0.4,0-0.8-0.3-0.9-0.7c-0.5-1.9-0.7-3.8-0.9-5.8
				c0-0.5,0.4-1,0.9-1c0.5,0,1,0.4,1,0.9c0.1,1.9,0.4,3.7,0.8,5.5c0.1,0.5-0.2,1-0.7,1.2C181.3,170.2,181.2,170.2,181.1,170.2z
				 M202.9,165.6c-0.3,0-0.6-0.2-0.8-0.4c-0.3-0.4-0.1-1,0.3-1.3c1.7-1.1,3.4-2,5-2.9c0.5-0.3,1-0.1,1.3,0.4c0.3,0.5,0.1,1-0.4,1.3
				c-1.6,0.9-3.2,1.8-4.9,2.9C203.3,165.6,203.1,165.6,202.9,165.6z M340.1,165.5c-0.3,0-0.5-0.1-0.7-0.3c-1.3-1.4-2.6-2.8-3.9-4.2
				c-0.4-0.4-0.3-1,0-1.3c0.4-0.4,1-0.3,1.3,0c1.3,1.4,2.6,2.8,3.9,4.2c0.4,0.4,0.3,1-0.1,1.3C340.6,165.4,340.3,165.5,340.1,165.5z
				 M213,160.1c-0.4,0-0.7-0.2-0.9-0.6c-0.2-0.5,0-1,0.5-1.3c1.8-0.9,3.6-1.6,5.4-2.2c0.5-0.2,1,0.1,1.2,0.6c0.2,0.5-0.1,1-0.6,1.2
				c-1.7,0.6-3.4,1.3-5.2,2.2C213.2,160.1,213.1,160.1,213,160.1z M239.6,159.7c-0.3,0-0.6-0.1-0.8-0.4c-1-1.3-2.3-2.3-4.1-2.9
				c-0.5-0.2-0.8-0.7-0.6-1.2c0.2-0.5,0.7-0.8,1.2-0.6c2.2,0.8,3.9,2,5,3.6c0.3,0.4,0.2,1-0.2,1.3
				C240,159.6,239.8,159.7,239.6,159.7z M180.3,158.9C180.3,158.9,180.3,158.9,180.3,158.9c-0.6-0.1-1-0.5-1-1
				c0.2-1.9,0.5-3.8,0.9-5.8c0.1-0.5,0.6-0.8,1.1-0.7c0.5,0.1,0.8,0.6,0.7,1.1c-0.4,1.8-0.7,3.7-0.9,5.5
				C181.3,158.5,180.8,158.9,180.3,158.9z M332.3,157.1c-0.3,0-0.5-0.1-0.7-0.3c-1.3-1.4-2.6-2.7-4-4.1c-0.4-0.4-0.4-1,0-1.3
				c0.4-0.4,1-0.4,1.3,0c1.4,1.4,2.7,2.7,4,4.1c0.4,0.4,0.3,1,0,1.3C332.8,157,332.5,157.1,332.3,157.1z M223.7,156.3
				c-0.4,0-0.8-0.3-0.9-0.7c-0.1-0.5,0.2-1,0.7-1.1c2.1-0.5,4-0.7,5.9-0.7c0,0,0,0,0,0c0.5,0,0.9,0.4,1,0.9c0,0.5-0.4,1-0.9,1
				c-1.7,0-3.5,0.3-5.5,0.7C223.9,156.3,223.8,156.3,223.7,156.3z M324.2,149c-0.2,0-0.5-0.1-0.7-0.3c-1.4-1.4-2.8-2.7-4.1-3.9
				c-0.4-0.4-0.4-1-0.1-1.3c0.4-0.4,1-0.4,1.3-0.1c1.4,1.2,2.8,2.6,4.2,3.9c0.4,0.4,0.4,1,0,1.3C324.7,148.9,324.5,149,324.2,149z
				 M182.9,147.7c-0.1,0-0.2,0-0.3-0.1c-0.5-0.2-0.7-0.7-0.6-1.2c0.7-1.8,1.5-3.6,2.4-5.3c0.2-0.5,0.8-0.7,1.3-0.4
				c0.5,0.2,0.6,0.8,0.4,1.3c-0.9,1.7-1.6,3.4-2.3,5.1C183.7,147.5,183.3,147.7,182.9,147.7z M315.8,141.2c-0.2,0-0.4-0.1-0.6-0.2
				c-1.5-1.3-2.9-2.5-4.4-3.6c-0.4-0.3-0.5-0.9-0.1-1.3c0.3-0.4,0.9-0.5,1.3-0.1c1.5,1.2,2.9,2.4,4.4,3.7c0.4,0.3,0.4,0.9,0.1,1.3
				C316.3,141.1,316.1,141.2,315.8,141.2z M188.2,137.6c-0.2,0-0.4-0.1-0.5-0.2c-0.4-0.3-0.5-0.9-0.3-1.3c1.1-1.6,2.3-3.1,3.5-4.6
				c0.3-0.4,0.9-0.4,1.3-0.1c0.4,0.3,0.4,0.9,0.1,1.3c-1.2,1.4-2.4,2.9-3.4,4.5C188.8,137.5,188.5,137.6,188.2,137.6z M306.9,134.1
				c-0.2,0-0.4-0.1-0.6-0.2c-1.5-1.1-3.1-2.2-4.6-3.3c-0.4-0.3-0.6-0.9-0.3-1.3c0.3-0.4,0.9-0.6,1.3-0.3c1.6,1.1,3.1,2.2,4.7,3.3
				c0.4,0.3,0.5,0.9,0.2,1.3C307.5,133.9,307.2,134.1,306.9,134.1z M195.6,129c-0.3,0-0.5-0.1-0.7-0.3c-0.4-0.4-0.3-1,0-1.3
				c1.4-1.3,2.9-2.6,4.5-3.7c0.4-0.3,1-0.2,1.3,0.2c0.3,0.4,0.2,1-0.2,1.3c-1.5,1.1-3,2.3-4.3,3.6C196.1,128.9,195.8,129,195.6,129z
				 M297.4,127.7c-0.2,0-0.3,0-0.5-0.1c-1.6-1-3.3-1.9-4.9-2.8c-0.5-0.3-0.6-0.8-0.4-1.3c0.3-0.5,0.8-0.6,1.3-0.4
				c1.7,0.9,3.4,1.9,5,2.9c0.4,0.3,0.6,0.9,0.3,1.3C298,127.5,297.7,127.7,297.4,127.7z M287.3,122.2c-0.1,0-0.3,0-0.4-0.1
				c-1.7-0.8-3.4-1.6-5.2-2.3c-0.5-0.2-0.7-0.8-0.5-1.2c0.2-0.5,0.8-0.7,1.2-0.5c1.8,0.7,3.5,1.5,5.3,2.3c0.5,0.2,0.7,0.8,0.5,1.3
				C288,122,287.7,122.2,287.3,122.2z M204.7,122.1c-0.3,0-0.6-0.2-0.8-0.5c-0.3-0.5-0.1-1,0.3-1.3c1.6-1,3.4-1.9,5.1-2.8
				c0.5-0.2,1,0,1.3,0.4c0.2,0.5,0,1-0.4,1.3c-1.7,0.8-3.4,1.7-5,2.7C205.1,122,204.9,122.1,204.7,122.1z M276.8,117.9
				c-0.1,0-0.2,0-0.3-0.1c-1.8-0.6-3.6-1.2-5.4-1.7c-0.5-0.1-0.8-0.7-0.7-1.2c0.1-0.5,0.7-0.8,1.2-0.7c1.8,0.5,3.7,1.1,5.5,1.7
				c0.5,0.2,0.8,0.7,0.6,1.2C277.5,117.7,277.2,117.9,276.8,117.9z M215,117.1c-0.4,0-0.8-0.2-0.9-0.6c-0.2-0.5,0.1-1,0.6-1.2
				c1.8-0.7,3.6-1.3,5.5-1.8c0.5-0.1,1,0.2,1.2,0.7c0.1,0.5-0.2,1-0.7,1.2c-1.8,0.5-3.6,1.1-5.4,1.7
				C215.3,117.1,215.1,117.1,215,117.1z M265.8,114.8c-0.1,0-0.1,0-0.2,0c-1.8-0.4-3.7-0.8-5.6-1.1c-0.5-0.1-0.9-0.6-0.8-1.1
				c0.1-0.5,0.6-0.9,1.1-0.8c1.9,0.3,3.8,0.7,5.7,1.1c0.5,0.1,0.8,0.6,0.7,1.1C266.6,114.5,266.2,114.8,265.8,114.8z M226,114
				c-0.4,0-0.8-0.3-0.9-0.8c-0.1-0.5,0.2-1,0.7-1.1c1.8-0.4,3.8-0.7,5.7-0.9c0.5-0.1,1,0.3,1.1,0.8c0.1,0.5-0.3,1-0.8,1.1
				c-1.9,0.2-3.8,0.5-5.6,0.9C226.2,114,226.1,114,226,114z M254.5,113c0,0-0.1,0-0.1,0c-1.9-0.2-3.8-0.3-5.7-0.4
				c-0.5,0-0.9-0.5-0.9-1c0-0.5,0.5-0.9,1-0.9c1.9,0.1,3.9,0.3,5.7,0.5c0.5,0.1,0.9,0.5,0.8,1C255.4,112.7,255,113,254.5,113z
				 M237.4,112.6c-0.5,0-0.9-0.4-1-0.9c0-0.5,0.4-1,0.9-1c1.9-0.1,3.8-0.2,5.8-0.2h0c0.5,0,1,0.4,1,1c0,0.5-0.4,1-1,1
				C241.2,112.4,239.3,112.5,237.4,112.6C237.4,112.6,237.4,112.6,237.4,112.6z"/>
		</g>
		<g>
			<path class="st0" d="M788.7,449.7H426c-0.5,0-1-0.4-1-1c0-0.5,0.4-1,1-1h362.7c0.5,0,1,0.4,1,1
				C789.7,449.2,789.3,449.7,788.7,449.7z"/>
		</g>
		<g>
			<path class="st2" d="M559.2,249.6h-68.7c-1.1,0-1.9-0.9-1.9-1.9s0.9-1.9,1.9-1.9h68.7c1.1,0,1.9,0.9,1.9,1.9
				S560.3,249.6,559.2,249.6z"/>
		</g>
		<g>
			<path class="st13" d="M875.6,152.1c-9.3-6.6-22.2-4.3-28.8,4.9c-5.5,7.9-4.9,18.5,1.5,25.7v4.4c0,0.8,0.6,1.4,1.4,1.5
				c0.1,0,0.2,0,0.3,0l4.6-1.1c10.3,4.9,22.6,0.6,27.6-9.7C886.6,168.7,883.8,157.9,875.6,152.1L875.6,152.1z"/>
		</g>
		<g>
			<path class="st15" d="M870.6,171.5l-5.7,5.7c-0.3,0.3-0.8,0.5-1.2,0.5c-0.5,0-0.9-0.2-1.3-0.5l-9.9-9.9c-0.3-0.3-0.5-0.8-0.5-1.3
				v11.7c0,1,0.8,1.8,1.8,1.8h19.7c1,0,1.8-0.8,1.8-1.8v-11L870.6,171.5z"/>
		</g>
		<g>
			<path class="st16" d="M872.7,162.9l-7.8-7.8c-0.3-0.3-0.8-0.5-1.2-0.5l0,0c-0.5,0-0.9,0.2-1.3,0.5l-9.9,9.9
				c-0.3,0.3-0.5,0.8-0.5,1.2l0,0c0,0.5,0.2,0.9,0.5,1.3l4,4c-0.9-0.9-0.9-2.4,0-3.3l0,0c0.9-0.9,2.4-0.9,3.3,0l3.8,3.8L872.7,162.9
				L872.7,162.9z"/>
		</g>
		<g>
			<path class="st1" d="M874.6,165l-2.1-2.1l0,0l-9.1,9.1l-3.8-3.8c-0.9-0.9-2.4-0.9-3.3,0l0,0c-0.9,0.9-0.9,2.4,0,3.3l5.7,5.7
				c0.3,0.3,0.8,0.5,1.3,0.5c0.5,0,0.9-0.2,1.2-0.5l5.7-5.7l0,0l4.6-4.5v-0.7C875.2,165.7,875,165.3,874.6,165z"/>
		</g>
		<g>
			<path class="st58" d="M636.3,58.1L636.3,58.1c0-14-11.5-25.4-25.5-25.4c-8.1,0-15.8,4-20.5,10.5c-5-23-27.8-37.5-50.8-32.5
				c-21.9,4.8-36.4,25.9-33,48.1c-13.8,3.5-22.3,17.4-18.9,31.2c2.9,11.6,13.2,19.7,25.1,19.7h123.5c14.2-0.3,25.6-12,25.3-26.4
				C661.4,69.6,650.3,58.4,636.3,58.1z"/>
		</g>
		<g>
			<path class="st58" d="M469,109.9L469,109.9c0-7.7-6.3-13.9-14-13.9c-4.4,0-8.7,2.2-11.3,5.7C441,89,428.4,81,415.8,83.8
				c-12,2.7-20,14.2-18.2,26.5c-7.6,2-12.1,9.8-10.2,17.4c1.6,6.1,7.1,10.5,13.5,10.6h67.9c7.8,0,14.2-6.3,14.2-14.2
				C483.2,116.1,476.9,109.8,469,109.9L469,109.9z"/>
		</g>
		<g>
			<path class="st15" d="M754.1,569.7c-0.5,0-0.9-0.3-0.9-0.8c-0.1-0.5,0.3-1,0.8-1.1c0.5-0.1,45.5-7.1,70.7-27.5
				c0.4-0.3,1-0.3,1.3,0.1c0.3,0.4,0.3,1-0.1,1.3c-25.6,20.7-71.1,27.8-71.6,27.9C754.2,569.7,754.1,569.7,754.1,569.7z"/>
		</g>
		<g>
			<path class="st15" d="M593.1,489.7c-0.3,0-0.6-0.1-0.8-0.4c-9.8-13.7-29.5-45.2-29.7-45.5c-0.3-0.4-0.1-1,0.3-1.3
				c0.4-0.3,1-0.1,1.3,0.3c0.2,0.3,19.9,31.7,29.6,45.4c0.3,0.4,0.2,1-0.2,1.3C593.5,489.6,593.3,489.7,593.1,489.7z"/>
		</g>
		<g>
			<path class="st15" d="M922,321.8c-0.4,0-0.8-0.3-0.9-0.7c-7.7-23.2-40.9-53.6-41.2-53.9c-0.4-0.4-0.4-1-0.1-1.3
				c0.4-0.4,1-0.4,1.3-0.1c1.4,1.3,33.9,31.1,41.7,54.7c0.2,0.5-0.1,1-0.6,1.2C922.2,321.8,922.1,321.8,922,321.8z"/>
		</g>
		<g>
			<path class="st15" d="M355.1,167.7c-0.3,0-0.5-0.1-0.7-0.3c-10.7-12.6-46-43-46.3-43.3c-0.4-0.3-0.4-0.9-0.1-1.3
				c0.3-0.4,0.9-0.4,1.3-0.1c0.4,0.3,35.7,30.8,46.5,43.6c0.3,0.4,0.3,1-0.1,1.3C355.5,167.6,355.3,167.7,355.1,167.7z"/>
		</g>
		<g>
			<path class="st15" d="M118,270.4c-0.1,0-0.3,0-0.4-0.1c-0.5-0.2-0.7-0.8-0.5-1.3c7.9-17.7,22.7-34.6,22.9-34.8
				c0.4-0.4,1-0.4,1.3-0.1c0.4,0.3,0.4,1,0.1,1.3c-0.1,0.2-14.8,16.9-22.6,34.3C118.8,270.2,118.4,270.4,118,270.4z"/>
		</g>
		<g>
			<circle class="st3" cx="558.5" cy="380.5" r="6.9"/>
		</g>
		<g>
			<path class="st1" d="M557.4,383.8l-2.8-2.8c-0.3-0.3-0.3-0.7,0-1s0.7-0.3,1,0l1.8,1.8l4-4c0.3-0.3,0.7-0.3,1,0s0.3,0.7,0,1
				L557.4,383.8z"/>
		</g>
		<g>
			<circle class="st3" cx="518.4" cy="380.5" r="6.9"/>
		</g>
		<g>
			<path class="st1" d="M517.3,383.8l-2.8-2.8c-0.3-0.3-0.3-0.7,0-1s0.7-0.3,1,0l1.8,1.8l4-4c0.3-0.3,0.7-0.3,1,0s0.3,0.7,0,1
				L517.3,383.8z"/>
		</g>
		<g>
			<path class="st3" d="M422,223.7h18.3c1.4,0,2.5,1.1,2.5,2.5v18.3c0,1.4-1.1,2.5-2.5,2.5H422c-1.4,0-2.5-1.1-2.5-2.5v-18.4
				C419.7,224.8,420.7,223.7,422,223.7z"/>
		</g>
		<g id="paperclip-1-2_00000002356657261681919110000003647451871393650305_">
			<path class="st1" d="M436.6,235.6l-4.8,4.8c-1.3,1.3-3.4,1.5-4.7,0.4c-1.5-1.2-1.7-3.4-0.5-4.9c0.1-0.1,0.2-0.2,0.2-0.3l5.8-5.8
				c0.7-0.7,1.8-0.9,2.7-0.3c1,0.7,1.2,2,0.6,2.9c-0.1,0.1-0.2,0.2-0.3,0.3l-5.6,5.6c-0.3,0.3-0.7,0.3-1,0c-0.3-0.3-0.3-0.7,0-1
				l4.6-4.6c0.3-0.3,0.3-0.7,0-1l0,0c-0.3-0.3-0.7-0.3-1,0l0,0l-4.6,4.6c-0.7,0.7-0.9,1.8-0.3,2.7c0.6,1,1.9,1.2,2.9,0.6
				c0.1-0.1,0.2-0.2,0.3-0.3l5.5-5.5c1.3-1.3,1.5-3.4,0.3-4.7c-1.2-1.5-3.4-1.7-4.8-0.5c-0.1,0.1-0.2,0.2-0.3,0.2l-5.7,5.7
				c-2,1.9-2.1,4.9-0.2,6.9c1.9,2,4.9,2.1,6.9,0.2l0.1-0.1l4.9-4.9c0.3-0.3,0.3-0.7,0-1l0,0l0,0
				C437.3,235.3,436.9,235.3,436.6,235.6L436.6,235.6z"/>
		</g>
		<g>
			<circle class="st0" cx="666.9" cy="555.2" r="29.6"/>
		</g>
		<g class="st59">
			<path class="st13" d="M650.1,545.2l31.4-0.2c1.1,0,2.1,0.9,2.1,2.1l0.1,18.2c0,1.1-0.9,2.1-2.1,2.1l-31.4,0.2
				c-1.1,0-2.1-0.9-2.1-2.1l-0.1-18.2C648,546.1,648.9,545.2,650.1,545.2z"/>
		</g>
		<g>
			<path class="st60" d="M651.1,544.1l31.4-0.2c1.1,0,2.1,0.9,2.1,2.1l0.1,18.2c0,1.1-0.9,2.1-2.1,2.1l-31.4,0.2
				c-1.1,0-2.1-0.9-2.1-2.1l-0.1-18.2C649,545.1,650,544.2,651.1,544.1z"/>
		</g>
		<g>
			<path class="st13" d="M651.3,566.4l31.4-0.2c0.5,0,1-0.2,1.4-0.6l-17.2-14.8l-2.5,2.5l-14.6,12.5
				C650.2,566.2,650.7,566.4,651.3,566.4z"/>
		</g>
		<g>
			<path class="st4" d="M682.5,543.9l-31.4,0.2c-0.4,0-0.8,0.1-1.1,0.3l15.8,13.2c0.8,0.7,1.9,0.7,2.7,0l15.2-13.4
				C683.3,544,682.9,543.9,682.5,543.9z"/>
		</g>
		<g>
			<circle class="st0" cx="205.4" cy="118.8" r="29.6"/>
		</g>
		<g class="st59">
			<path class="st13" d="M220.8,132.1l-5.7-5.7c4.3-7.1,2.2-16.4-4.9-20.7c-7.1-4.3-16.4-2.2-20.7,4.9s-2.2,16.4,4.9,20.7
				c4.8,3,11,3,15.8,0l5.7,5.7c1.2,1.5,3.5,1.8,4.9,0.6c1.5-1.2,1.8-3.5,0.6-4.9C221.2,132.4,221,132.2,220.8,132.1L220.8,132.1z"/>
		</g>
		<g>
			<path class="st60" d="M211.4,128.2l3.6-3.6l0,0l6.1,6.1c1,1,1,2.6,0,3.6l0,0c-1,1-2.6,1-3.6,0L211.4,128.2L211.4,128.2
				L211.4,128.2z"/>
		</g>
		<g>
			<circle class="st1" cx="203.3" cy="116.5" r="14.1"/>
		</g>
		<g class="st61">
			<path class="st60" d="M213.2,106.5c-5.5-5.5-14.4-5.5-19.9,0c-0.4,0.4-0.8,0.9-1.2,1.4c5.7-5.2,14.6-4.9,19.9,0.8
				c4.6,5,5,12.7,0.8,18.2c0.1-0.1,0.3-0.2,0.4-0.4C218.7,120.9,218.7,112,213.2,106.5z"/>
		</g>
		<g>
			<path class="st60" d="M203.3,131.6c-4,0-7.8-1.6-10.7-4.4l0,0c-5.9-5.9-5.9-15.4,0-21.3c5.9-5.9,15.4-5.9,21.3,0
				c5.9,5.9,5.9,15.4,0,21.3C211.1,130,207.2,131.6,203.3,131.6z M194,125.8c5.1,5.1,13.4,5.1,18.6,0c5.1-5.1,5.1-13.4,0-18.6
				c-5.1-5.1-13.4-5.1-18.6,0l0,0C188.9,112.3,188.9,120.6,194,125.8z"/>
		</g>
		<g class="st62">
			<path class="st60" d="M201.2,114.8c-0.1,0-0.2,0-0.3-0.1c-0.2-0.2-0.2-0.5,0-0.7l9.6-9.7c0.2-0.2,0.5-0.2,0.7,0
				c0.2,0.2,0.2,0.5,0,0.7l-9.6,9.7C201.4,114.7,201.3,114.8,201.2,114.8z"/>
		</g>
		<g class="st62">
			<path class="st60" d="M197.4,122.8c-0.1,0-0.2,0-0.3-0.1c-0.2-0.2-0.2-0.5,0-0.7l12.7-12.8c0.2-0.2,0.5-0.2,0.7,0
				c0.2,0.2,0.2,0.5,0,0.7l-12.7,12.8C197.7,122.7,197.6,122.8,197.4,122.8z"/>
		</g>
	</g>
</g>
</svg>
